<svg width="354" height="262" viewBox="0 0 354 262" fill="none" xmlns="http://www.w3.org/2000/svg">
<path d="M298.893 181.947C298.526 181.518 298.253 181.01 298.092 180.457C297.931 179.904 297.887 179.321 297.962 178.748C298.037 178.175 298.23 177.627 298.527 177.141C298.824 176.656 299.218 176.246 299.682 175.939L296.718 162.236L303.182 164.795L305.005 177.416C305.44 178.274 305.563 179.27 305.35 180.218C305.137 181.165 304.604 181.997 303.85 182.555C303.097 183.114 302.176 183.36 301.262 183.248C300.349 183.136 299.505 182.673 298.893 181.947Z" fill="#FFB8B8"/>
<path d="M298.445 171.071L292.763 159.443L293.532 130.162L293.897 130.976C294.322 131.925 304.292 154.266 303.581 161.745L304.721 168.58L298.445 171.071Z" fill="#3F3D56"/>
<path d="M294.74 257.009H299.297L301.464 238.406L294.74 238.407L294.74 257.009Z" fill="#FFB8B8"/>
<path d="M293.578 255.435L302.551 255.434H302.552C304.068 255.434 305.523 256.072 306.595 257.207C307.667 258.342 308.27 259.882 308.27 261.487V261.684L293.578 261.684L293.578 255.435Z" fill="#2F2E41"/>
<path d="M249.722 253.344L254.111 254.636L260.908 237.328L254.429 235.421L249.722 253.344Z" fill="#FFB8B8"/>
<path d="M249 251.497L257.645 254.042L257.646 254.042C259.107 254.472 260.347 255.499 261.093 256.896C261.838 258.294 262.029 259.948 261.623 261.495L261.573 261.684L247.419 257.518L249 251.497Z" fill="#2F2E41"/>
<path d="M290.198 249.757L281.002 180.065L261.141 249.363L245.525 243.718L267.907 150.927L268.054 150.916L291.501 149.189L308.441 244.124L290.198 249.757Z" fill="#2F2E41"/>
<path d="M287.766 118.087C287.766 118.087 279.218 113.366 267.697 115.333C267.697 115.333 261.565 130.993 267.697 137.227L269.369 152.902C269.369 152.902 284.978 162.737 290.181 151.328L289.438 138.347C289.438 138.347 293.155 132.12 290.181 127.562C288.399 124.778 287.549 121.442 287.766 118.087Z" fill="#FFB4B4"/>
<path d="M288.849 189.386L290.349 156.432L286.103 117.23L286.298 117.199C291.868 116.31 293.654 126.467 293.727 126.9L303.422 184.92L288.849 189.386Z" fill="#3F3D56"/>
<path d="M269.947 189.729L252.808 187.713L252.813 187.515C252.874 184.829 254.349 121.683 258.482 117.21C262.64 112.711 270.486 114.658 270.818 114.743L270.984 114.786L269.573 141.506L269.947 189.729Z" fill="#3F3D56"/>
<path d="M273.104 151.988C272.585 152.168 272.035 152.226 271.492 152.156C270.95 152.087 270.428 151.893 269.964 151.588C269.5 151.282 269.106 150.873 268.807 150.388C268.509 149.903 268.315 149.356 268.238 148.783L255.206 146.08L260.042 140.869L271.676 144.234C272.594 144.162 273.504 144.448 274.235 145.039C274.967 145.63 275.468 146.484 275.644 147.44C275.82 148.396 275.658 149.386 275.19 150.225C274.722 151.063 273.98 151.69 273.104 151.988Z" fill="#FFB8B8"/>
<path d="M266.149 148.824L261.903 147.858C255.633 149.854 244.691 142.828 240.268 139.707C239.436 139.12 239.166 137.956 239.465 136.249C239.908 133.862 241.151 131.724 242.966 130.231L258.543 117.157L262.474 116.461L263.642 123.466L253.718 134.749L268.327 143.166L266.149 148.824Z" fill="#3F3D56"/>
<path d="M264.47 109.403V100.32C264.47 96.4771 265.912 92.7916 268.479 90.0743C271.046 87.3569 274.528 85.8303 278.158 85.8303C281.789 85.8303 285.271 87.3569 287.838 90.0743C290.405 92.7916 291.847 96.4771 291.847 100.32V109.403C291.847 109.919 291.653 110.414 291.308 110.779C290.963 111.144 290.496 111.349 290.008 111.35H266.308C265.821 111.349 265.353 111.144 265.009 110.779C264.664 110.414 264.47 109.919 264.47 109.403Z" fill="#2F2E41"/>
<path d="M277.608 111.26C283.151 111.26 287.644 106.504 287.644 100.637C287.644 94.7697 283.151 90.0134 277.608 90.0134C272.065 90.0134 267.572 94.7697 267.572 100.637C267.572 106.504 272.065 111.26 277.608 111.26Z" fill="#FFB8B8"/>
<path d="M267.297 100.596C267.201 100.479 267.13 100.341 267.088 100.192C267.047 100.044 267.037 99.8872 267.057 99.7337L268.246 90.9708C268.27 90.7925 268.335 90.6232 268.436 90.4783C268.537 90.3334 268.67 90.2174 268.824 90.1408C274.892 87.1346 281.046 87.1308 287.114 90.1294C287.275 90.2101 287.414 90.3338 287.516 90.4881C287.618 90.6425 287.681 90.8223 287.698 91.0101L288.492 99.7844C288.505 99.9344 288.489 100.086 288.444 100.229C288.399 100.372 288.326 100.503 288.231 100.615C288.135 100.726 288.018 100.815 287.888 100.876C287.758 100.937 287.617 100.969 287.475 100.969H285.462C285.268 100.968 285.077 100.909 284.914 100.799C284.75 100.688 284.619 100.531 284.536 100.345L283.668 98.3749C283.611 98.2473 283.517 98.1426 283.4 98.0764C283.283 98.0103 283.148 97.9864 283.017 98.0082C282.885 98.0301 282.764 98.0966 282.672 98.1978C282.579 98.2989 282.52 98.4291 282.504 98.5688L282.332 100.021C282.301 100.283 282.181 100.523 281.995 100.698C281.808 100.872 281.568 100.968 281.319 100.969H268.069C267.922 100.969 267.778 100.936 267.644 100.871C267.511 100.807 267.393 100.713 267.297 100.596Z" fill="#2F2E41"/>
<path d="M225.15 17.4597H0V165.866H225.15V17.4597Z" fill="#E6E6E6"/>
<path d="M56.3343 46.0496H15.0981V74.4214H56.3343V46.0496Z" fill="white"/>
<path d="M107.573 46.0496H66.3372V74.4214H107.573V46.0496Z" fill="white"/>
<path d="M158.812 46.0496H117.576V74.4214H158.812V46.0496Z" fill="white"/>
<path d="M210.052 46.0496H168.815V74.4214H210.052V46.0496Z" fill="white"/>
<path d="M56.3343 86.2068H15.0981V114.579H56.3343V86.2068Z" fill="white"/>
<path d="M107.573 86.2068H66.3372V114.579H107.573V86.2068Z" fill="white"/>
<path d="M158.812 86.2068H117.576V114.579H158.812V86.2068Z" fill="white"/>
<path d="M210.052 86.2068H168.815V114.579H210.052V86.2068Z" fill="white"/>
<path d="M56.3343 126.364H15.0981V154.736H56.3343V126.364Z" fill="white"/>
<path d="M107.573 126.364H66.3372V154.736H107.573V126.364Z" fill="white"/>
<path d="M158.812 126.364H117.576V154.736H158.812V126.364Z" fill="white"/>
<path d="M210.052 126.364H168.815V154.736H210.052V126.364Z" fill="white"/>
<path d="M58.9677 34.9192C62.3839 34.9192 65.1532 31.9878 65.1532 28.3718C65.1532 24.7558 62.3839 21.8245 58.9677 21.8245C55.5516 21.8245 52.7823 24.7558 52.7823 28.3718C52.7823 31.9878 55.5516 34.9192 58.9677 34.9192Z" fill="white"/>
<path d="M161.233 34.9191C164.65 34.9191 167.419 31.9878 167.419 28.3718C167.419 24.7558 164.65 21.8245 161.233 21.8245C157.817 21.8245 155.048 24.7558 155.048 28.3718C155.048 31.9878 157.817 34.9191 161.233 34.9191Z" fill="white"/>
<path d="M61.4419 0H56.4936V30.1178H61.4419V0Z" fill="#E6E6E6"/>
<path d="M163.708 0H158.759V30.1178H163.708V0Z" fill="#E6E6E6"/>
<path d="M198.758 60.2355C198.756 62.6059 197.946 64.8958 196.477 66.6846C195.007 68.4733 192.978 69.6407 190.76 69.9723C188.543 70.3038 186.287 69.7773 184.407 68.4894C182.527 67.2014 181.15 65.2387 180.527 62.9617C179.905 60.6847 180.08 58.2465 181.02 56.095C181.959 53.9435 183.601 52.2233 185.643 51.2505C187.685 50.2776 189.99 50.1175 192.135 50.7995C194.28 51.4815 196.12 52.9598 197.317 54.9628C198.26 56.5402 198.76 58.3689 198.758 60.2355Z" fill="#FFB4B4"/>
<path d="M197.317 54.963L188.138 64.6775C187.561 63.732 184.347 59.3383 184.347 59.3383C184.759 58.8977 185.199 58.487 185.663 58.109L188.328 61.8706L196.242 53.4932C196.644 53.9461 197.004 54.4382 197.317 54.963Z" fill="white"/>
<path d="M96.2802 100.393C96.2781 102.763 95.4679 105.053 93.9986 106.842C92.5293 108.63 90.4995 109.798 88.2821 110.129C86.0648 110.461 83.8089 109.934 81.929 108.646C80.0491 107.358 78.6714 105.396 78.049 103.119C77.4267 100.842 77.6015 98.4034 78.5414 96.252C79.4812 94.1005 81.123 92.3803 83.1651 91.4075C85.2071 90.4346 87.5122 90.2745 89.6569 90.9565C91.8015 91.6385 93.6416 93.1168 94.8391 95.1198C95.7821 96.6972 96.2819 98.5258 96.2802 100.393Z" fill="#FFB4B4"/>
<path d="M94.8391 95.12L85.6599 104.834C85.083 103.889 81.8689 99.4953 81.8689 99.4953C82.2808 99.0547 82.7204 98.644 83.1846 98.266L85.8498 102.028L93.7642 93.6501C94.1656 94.103 94.5255 94.5952 94.8391 95.12Z" fill="white"/>
<path d="M45.0412 100.393C45.0391 102.763 44.2289 105.053 42.7595 106.842C41.2902 108.631 39.2604 109.798 37.043 110.13C34.8257 110.461 32.5698 109.935 30.6899 108.647C28.8099 107.359 27.4322 105.396 26.8098 103.119C26.1875 100.842 26.3623 98.4037 27.3022 96.2522C28.2421 94.1007 29.8839 92.3805 31.926 91.4077C33.968 90.4349 36.2731 90.2747 38.4178 90.9567C40.5625 91.6387 42.4026 93.1171 43.6 95.1201C44.543 96.6974 45.0429 98.5261 45.0412 100.393Z" fill="#FFB4B4"/>
<path d="M43.6 95.12L34.4209 104.834C33.8439 103.889 30.6298 99.4953 30.6298 99.4953C31.0417 99.0547 31.4813 98.644 31.9455 98.266L34.6107 102.028L42.5251 93.6501C42.9265 94.103 43.2864 94.5952 43.6 95.12Z" fill="white"/>
<path d="M353.591 262H197.907C197.799 262 197.695 261.954 197.618 261.873C197.542 261.792 197.499 261.682 197.499 261.568C197.499 261.453 197.542 261.343 197.618 261.262C197.695 261.181 197.799 261.135 197.907 261.135H353.591C353.7 261.135 353.804 261.181 353.88 261.262C353.957 261.343 354 261.453 354 261.568C354 261.682 353.957 261.792 353.88 261.873C353.804 261.954 353.7 262 353.591 262Z" fill="#3F3D56"/>
</svg>
