<svg width="305" height="238" viewBox="0 0 305 238" fill="none" xmlns="http://www.w3.org/2000/svg">
<g clip-path="url(#clip0)">
<path d="M274.88 83.4829H274.556C271.036 83.4787 267.661 81.9872 265.171 79.3356C262.682 76.684 261.282 73.089 261.278 69.3391V64.5095H221.766V63.8196H261.925V69.3391C261.929 72.8463 263.217 76.2136 265.515 78.7252C267.814 81.2368 270.941 82.6945 274.232 82.7886V63.8196H283.625C284.913 63.818 286.147 63.2724 287.058 62.3023C287.969 61.3322 288.481 60.0169 288.483 58.645V5.8645C288.481 4.4926 287.969 3.17733 287.058 2.20725C286.147 1.23717 284.913 0.691494 283.625 0.689941H159.907C158.619 0.691494 157.384 1.23717 156.473 2.20725C155.562 3.17733 155.05 4.4926 155.049 5.8645V44.1563H154.401V5.8645C154.403 4.30968 154.983 2.81903 156.015 1.71961C157.048 0.620177 158.447 0.00175034 159.907 0H283.625C285.084 0.00175034 286.484 0.620177 287.516 1.71961C288.548 2.81903 289.129 4.30968 289.13 5.8645V58.645C289.129 60.1999 288.548 61.6905 287.516 62.7899C286.484 63.8893 285.084 64.5078 283.625 64.5095H274.88V83.4829Z" fill="#CCCCCC"/>
<path d="M263.214 17.4243C263.174 16.3113 262.73 15.2583 261.977 14.486C261.223 13.7136 260.218 13.2819 259.173 13.2812H184.359C183.285 13.2812 182.255 13.7356 181.496 14.5442C180.737 15.3529 180.31 16.4497 180.31 17.5934C180.31 18.737 180.737 19.8338 181.496 20.6425C182.255 21.4512 183.285 21.9055 184.359 21.9055H259.173C260.246 21.9039 261.275 21.4491 262.034 20.6408C262.792 19.8324 263.219 18.7365 263.221 17.5934C263.222 17.537 263.22 17.4805 263.214 17.4243Z" fill="#CCCCCC"/>
<path d="M263.214 31.9134C263.174 30.8004 262.73 29.7473 261.977 28.975C261.223 28.2026 260.218 27.7709 259.173 27.7703H184.359C183.285 27.7703 182.255 28.2246 181.496 29.0333C180.737 29.8419 180.31 30.9388 180.31 32.0824C180.31 33.2261 180.737 34.3229 181.496 35.1315C182.255 35.9402 183.285 36.3945 184.359 36.3945H259.173C260.246 36.393 261.275 35.9381 262.034 35.1298C262.792 34.3215 263.219 33.2256 263.221 32.0824C263.222 32.026 263.22 31.9695 263.214 31.9134Z" fill="#CCCCCC"/>
<path d="M263.214 46.4021C263.174 45.2891 262.73 44.2361 261.977 43.4638C261.223 42.6914 260.218 42.2597 259.173 42.259H184.359C183.765 42.2591 183.179 42.3981 182.642 42.6664C182.105 42.9347 181.629 43.3256 181.25 43.8114C181.083 44.0264 180.936 44.2574 180.809 44.5013H216.584C217.872 44.503 219.107 45.0487 220.017 46.0188C220.928 46.9888 221.44 48.304 221.442 49.6759V50.8833H259.173C260.246 50.8817 261.275 50.4269 262.034 49.6186C262.792 48.8102 263.219 47.7143 263.221 46.5712C263.222 46.5147 263.22 46.4583 263.214 46.4021Z" fill="#CCCCCC"/>
<path d="M7.94051 236.203C8.11669 236.357 8.29296 236.505 8.47333 236.65H52.9743C53.3057 236.505 53.6357 236.356 53.9643 236.203C58.6623 234.025 63.035 231.126 66.9429 227.596C69.5378 225.255 71.925 222.837 73.6556 220.571C76.07 217.41 78.2936 213.964 79.3278 210.038C80.3599 206.113 80.0516 201.612 77.7461 198.357C77.0323 197.355 76.1546 196.499 75.1554 195.83C74.9897 195.718 74.8219 195.611 74.65 195.51C71.7818 193.866 68.436 193.437 65.2836 194.31C60.8259 195.537 57.1214 198.962 54.4783 202.98C51.8352 206.995 50.1192 211.607 48.4285 216.167C46.7126 208.027 41.5165 200.737 34.4976 197.03C27.4807 193.323 18.7626 193.368 11.8947 197.383C9.73377 198.654 7.78176 200.291 6.11546 202.231C5.94984 202.421 5.78821 202.616 5.62883 202.812C2.27884 206.944 0.183176 212.235 0.0111989 217.691C-0.0661217 221.214 0.607191 224.71 1.98055 227.917C3.35391 231.123 5.39159 233.956 7.94051 236.203Z" fill="#F2F2F2"/>
<path d="M51.1954 236.65H51.8247C51.833 236.5 51.8435 236.353 51.8561 236.203C52.0761 233.28 52.5366 230.384 53.2322 227.547C54.8283 221.07 57.5546 214.972 61.2686 209.569C64.972 204.149 69.6408 199.559 75.0086 196.06C75.0479 196.036 75.0815 196.003 75.107 195.963C75.1324 195.923 75.149 195.878 75.1554 195.83C75.1657 195.768 75.1591 195.703 75.1364 195.645C75.1137 195.586 75.0759 195.536 75.0273 195.499C74.9787 195.463 74.9214 195.442 74.862 195.438C74.8026 195.435 74.7436 195.45 74.6918 195.481C74.6774 195.49 74.6634 195.5 74.6499 195.51C71.6087 197.485 68.7856 199.817 66.2339 202.464C61.6694 207.207 57.9889 212.827 55.3866 219.027C53.0908 224.458 51.6846 230.267 51.2289 236.203C51.2163 236.353 51.2058 236.503 51.1954 236.65Z" fill="white"/>
<path d="M5.62877 202.812C5.63333 202.815 5.63831 202.816 5.64343 202.817C6.10281 202.906 6.56435 203 7.02169 203.101C10.7756 203.922 14.4503 205.11 17.999 206.651C21.5384 208.19 24.943 210.059 28.173 212.237C31.407 214.414 34.4567 216.887 37.2875 219.628C40.1182 222.366 42.7149 225.366 45.0469 228.593C46.7899 231.011 48.3746 233.553 49.7898 236.203C49.8695 236.351 49.9472 236.5 50.0248 236.65H50.7443C50.6688 236.5 50.5911 236.351 50.5115 236.203C48.7993 232.956 46.836 229.868 44.642 226.968C42.2159 223.76 39.5265 220.788 36.6057 218.087C33.7035 215.401 30.5887 212.988 27.2961 210.874C23.9898 208.752 20.5136 206.945 16.9082 205.476C13.4094 204.051 9.79722 202.965 6.11541 202.231C6.01267 202.211 5.91199 202.191 5.80915 202.171C5.41696 202.095 5.24908 202.725 5.62877 202.812Z" fill="white"/>
<path d="M18.1426 226.137C22.5248 225.495 26.9751 225.602 31.3257 226.454C35.6636 227.298 39.8514 228.858 43.7384 231.076C45.9229 232.326 47.9962 233.786 49.9328 235.435C50.2491 235.705 49.8013 236.176 49.4878 235.909C46.0896 233.03 42.2803 230.749 38.2048 229.154C34.1614 227.561 29.9115 226.642 25.605 226.431C23.1683 226.312 20.7264 226.43 18.3098 226.783C18.2295 226.804 18.1448 226.791 18.073 226.748C18.0011 226.704 17.9474 226.633 17.9228 226.549C17.9011 226.464 17.912 226.372 17.9532 226.295C17.9943 226.218 18.0624 226.161 18.1425 226.137H18.1426Z" fill="white"/>
<path d="M216.26 44.5012H92.542C91.0824 44.5034 89.6832 45.122 88.6511 46.2213C87.619 47.3207 87.0383 48.811 87.0363 50.3657V103.146C87.0383 104.701 87.619 106.191 88.6511 107.291C89.6832 108.39 91.0824 109.009 92.542 109.011H101.286V127.984H101.61C105.131 127.98 108.506 126.489 110.996 123.837C113.485 121.186 114.885 117.59 114.889 113.84V109.011H216.26C217.72 109.009 219.119 108.39 220.151 107.291C221.183 106.191 221.764 104.701 221.766 103.146V50.3657C221.764 48.811 221.183 47.3207 220.151 46.2213C219.119 45.122 217.72 44.5034 216.26 44.5012ZM221.118 103.146C221.116 104.518 220.604 105.833 219.693 106.803C218.783 107.773 217.548 108.319 216.26 108.321H114.241V113.84C114.237 117.347 112.949 120.715 110.651 123.226C108.353 125.738 105.226 127.196 101.934 127.291V108.321H92.542C91.2541 108.319 90.0193 107.773 89.1086 106.803C88.1979 105.833 87.6856 104.518 87.684 103.146V50.3657C87.6856 48.9939 88.1979 47.6787 89.1086 46.7086C90.0193 45.7385 91.2541 45.1928 92.542 45.1912H216.26C217.548 45.1928 218.783 45.7385 219.693 46.7086C220.604 47.6787 221.116 48.9939 221.118 50.3657V103.146Z" fill="#3F3D56"/>
<path d="M191.808 57.7827H116.994C115.948 57.7834 114.944 58.2151 114.19 58.9875C113.437 59.7598 112.993 60.8128 112.952 61.9258C112.947 61.982 112.945 62.0384 112.946 62.0949C112.947 63.238 113.374 64.3339 114.133 65.1422C114.892 65.9506 115.921 66.4054 116.994 66.407H191.808C192.882 66.407 193.911 65.9527 194.67 65.144C195.43 64.3353 195.856 63.2385 195.856 62.0949C195.856 60.9512 195.43 59.8544 194.67 59.0457C193.911 58.237 192.882 57.7827 191.808 57.7827Z" fill="#FFB4B4"/>
<path d="M191.808 72.2715H116.994C115.948 72.2721 114.944 72.7039 114.19 73.4762C113.437 74.2486 112.993 75.3016 112.952 76.4146C112.947 76.4707 112.945 76.5272 112.946 76.5836C112.947 77.7268 113.374 78.8227 114.133 79.631C114.892 80.4393 115.921 80.8942 116.994 80.8958H191.808C192.882 80.8958 193.911 80.4414 194.67 79.6328C195.43 78.8241 195.856 77.7273 195.856 76.5836C195.856 75.44 195.43 74.3432 194.67 73.5345C193.911 72.7258 192.882 72.2715 191.808 72.2715Z" fill="#FFB4B4"/>
<path d="M191.808 86.7603H116.994C115.948 86.7609 114.944 87.1926 114.19 87.965C113.437 88.7373 112.993 89.7904 112.952 90.9034C112.947 90.9595 112.945 91.016 112.946 91.0724C112.947 92.2155 113.374 93.3114 114.133 94.1197C114.892 94.9281 115.921 95.3829 116.994 95.3845H191.808C192.882 95.3845 193.911 94.9302 194.67 94.1215C195.43 93.3128 195.856 92.216 195.856 91.0724C195.856 89.9287 195.43 88.8319 194.67 88.0232C193.911 87.2146 192.882 86.7603 191.808 86.7603Z" fill="#FFB4B4"/>
<path d="M72.7817 163.074C72.6359 163.075 72.4902 163.065 72.3456 163.045C71.8473 162.98 71.3675 162.804 70.9377 162.527C70.5079 162.251 70.1377 161.881 69.8515 161.442C69.5653 161.002 69.3695 160.503 69.2769 159.978C69.1843 159.452 69.197 158.912 69.3142 158.392C69.342 158.271 69.3755 158.152 69.4148 158.035L58.609 143.3C58.1333 142.646 57.8682 141.846 57.853 141.019C57.8378 140.192 58.0734 139.382 58.5247 138.709L62.3098 133.109L67.257 137.175L65.2695 140.811L73.1404 155.507C73.2986 155.522 73.4557 155.549 73.6104 155.588C74.4584 155.805 75.2022 156.346 75.701 157.108C76.1998 157.87 76.4188 158.801 76.3167 159.723C76.2146 160.646 75.7984 161.496 75.1469 162.114C74.4954 162.732 73.6539 163.073 72.7817 163.074L72.7817 163.074Z" fill="#A0616A"/>
<path d="M91.4823 232.896L95.4529 232.896L97.3417 216.583L91.4816 216.583L91.4823 232.896Z" fill="#A0616A"/>
<path d="M103.11 236.823L90.6315 236.823L90.6313 231.688L98.2888 231.687C98.922 231.687 99.5489 231.82 100.134 232.078C100.719 232.336 101.25 232.714 101.698 233.191C102.146 233.668 102.501 234.234 102.743 234.857C102.986 235.48 103.11 236.148 103.11 236.823Z" fill="#2F2E41"/>
<path d="M58.7715 232.896L62.7422 232.896L64.631 216.583L58.7709 216.583L58.7715 232.896Z" fill="#A0616A"/>
<path d="M70.3997 236.823L57.9208 236.823L57.9205 231.688L65.5781 231.687C66.2112 231.687 66.8382 231.82 67.4231 232.078C68.0081 232.336 68.5396 232.714 68.9874 233.191C69.4351 233.668 69.7902 234.234 70.0326 234.857C70.2749 235.48 70.3996 236.148 70.3997 236.823Z" fill="#2F2E41"/>
<path d="M61.2085 133.903L70.1229 137.512L72.2993 131.072C72.5883 130.217 72.5842 129.281 72.2877 128.429C71.9913 127.576 71.4216 126.863 70.6793 126.415C69.9284 125.962 69.0501 125.81 68.203 125.986C67.3559 126.162 66.5958 126.655 66.0601 127.376L61.2085 133.903Z" fill="#FFB4B4"/>
<path d="M90.7764 219.728C90.4204 219.727 90.0747 219.601 89.7937 219.368C89.5127 219.135 89.3124 218.809 89.2242 218.442C84.779 200.327 80.2654 191.248 75.4254 180.749C75.3043 180.487 75.1081 180.273 74.8651 180.138C74.6221 180.003 74.3451 179.955 74.0743 179.999C73.8036 180.044 73.5532 180.179 73.3597 180.385C73.1661 180.592 73.0394 180.859 72.9981 181.147L66.9987 218.076C66.9388 218.488 66.7404 218.863 66.4404 219.13C66.1404 219.398 65.7593 219.54 65.368 219.531L56.4611 219.3C56.245 219.295 56.0321 219.244 55.8351 219.149C55.6382 219.054 55.4614 218.918 55.3154 218.748C55.1612 218.585 55.0433 218.387 54.9702 218.17C54.8971 217.952 54.8708 217.719 54.8932 217.489C58.9273 189.152 62.1035 163.501 68.2117 155.676C68.381 155.505 68.5751 155.365 68.7865 155.26L68.6011 155.229C68.5482 155.221 68.4071 155.198 68.4054 155.047L68.4036 154.901L68.543 154.873C68.7654 154.864 68.9874 154.9 69.1976 154.977L83.1384 157.263C83.5246 157.326 83.8759 157.537 84.127 157.856C84.3781 158.175 84.5118 158.58 84.5031 158.996C85.2611 162.772 86.4225 168.473 86.5264 168.753C93.9643 183.815 96.8505 195.676 99.8504 215.929C99.9125 216.358 99.8197 216.797 99.5907 217.157C99.3617 217.516 99.0134 217.77 98.6158 217.867L91.1395 219.684C91.0204 219.713 90.8986 219.727 90.7764 219.728Z" fill="#2F2E41"/>
<path d="M82.9531 159.732C82.828 159.732 82.7033 159.717 82.5816 159.686L68.8566 156.208C68.6462 156.156 68.4482 156.058 68.2746 155.921C68.1011 155.784 67.9557 155.611 67.8475 155.412C67.7359 155.206 67.6645 154.978 67.6375 154.742C67.6106 154.505 67.6287 154.266 67.6908 154.037C69.1708 148.572 67.2301 141.797 64.9124 135.29C64.6176 133.387 64.9064 131.433 65.7359 129.719C66.5654 128.005 67.8915 126.621 69.5176 125.772L69.5549 125.753L76.7608 126.141C77.944 126.471 79.0416 127.083 79.9709 127.93C80.9002 128.777 81.6371 129.838 82.1263 131.032C84.9037 137.956 85.699 146.841 84.5572 158.193C84.5153 158.616 84.3282 159.006 84.0321 159.29C83.7359 159.574 83.3516 159.732 82.9531 159.732L82.9531 159.732Z" fill="#FFB4B4"/>
<path d="M84.7995 143.928C84.0669 143.929 83.3521 143.687 82.7548 143.235L77.4388 139.199L81.2316 133.91L84.6555 136.01L98.4139 127.556C98.4277 127.387 98.4524 127.22 98.4881 127.055C98.6493 126.324 99.0103 125.661 99.5255 125.149C100.041 124.637 100.687 124.299 101.382 124.178C102.078 124.057 102.791 124.159 103.432 124.47C104.074 124.781 104.614 125.287 104.985 125.925C105.356 126.563 105.541 127.304 105.516 128.054C105.492 128.804 105.26 129.53 104.848 130.139C104.437 130.748 103.865 131.214 103.205 131.477C102.545 131.74 101.827 131.789 101.141 131.617C101.027 131.588 100.915 131.553 100.805 131.512L86.9844 143.125C86.3614 143.647 85.5917 143.929 84.7995 143.928Z" fill="#A0616A"/>
<path d="M75.7523 140.847L83.6381 135.135L79.9321 129.544C79.44 128.802 78.7173 128.268 77.8919 128.039C77.0664 127.809 76.1912 127.897 75.421 128.288C74.6419 128.684 74.0213 129.363 73.6712 130.203C73.3211 131.044 73.2646 131.99 73.512 132.87L75.7523 140.847Z" fill="#FFB4B4"/>
<path d="M71.9598 122.886C76.3529 122.886 79.9143 119.093 79.9143 114.414C79.9143 109.734 76.3529 105.941 71.9598 105.941C67.5666 105.941 64.0052 109.734 64.0052 114.414C64.0052 119.093 67.5666 122.886 71.9598 122.886Z" fill="#A0616A"/>
<path d="M72.6886 123.082C71.4947 123.077 70.5737 121.738 70.6272 120.468C70.6807 119.197 71.4818 118.079 72.4469 117.331C73.412 116.582 74.5439 116.126 75.6202 115.576C76.6965 115.025 77.7634 114.339 78.4279 113.282C78.8293 112.591 79.069 111.807 79.1266 110.996C79.1843 110.185 79.0583 109.372 78.7593 108.624C78.1409 107.128 77.0791 105.889 75.7366 105.097C73.7423 103.853 71.3814 103.456 69.1242 103.983C66.8671 104.51 64.8793 105.924 63.5568 107.943L62.1939 111.895C60.8052 113.674 60.585 116.316 61.4386 118.443C62.2923 120.57 64.1099 122.171 66.161 122.931C68.242 123.644 70.4696 123.715 72.5869 123.137" fill="#2F2E41"/>
<path d="M64.0936 110.396C63.5487 109.501 62.8054 108.763 61.9293 108.246C61.0531 107.729 60.0711 107.45 59.0697 107.433C58.0684 107.416 57.0784 107.661 56.1871 108.148C55.2959 108.634 54.5307 109.347 53.9591 110.223C53.0022 111.689 52.6547 113.497 51.9968 115.139C50.8051 118.08 48.6378 120.451 45.909 121.798C48.2983 122.246 50.6787 120.951 52.5889 119.358C54.499 117.765 56.1789 115.821 58.3182 114.602C60.0012 113.647 61.8918 113.185 63.7974 113.262" fill="#2F2E41"/>
<path d="M131.048 237.34H7.65393C7.56804 237.34 7.48566 237.304 7.42492 237.239C7.36418 237.174 7.33006 237.086 7.33006 236.995C7.33006 236.903 7.36418 236.816 7.42492 236.751C7.48566 236.686 7.56804 236.65 7.65393 236.65H131.048C131.134 236.65 131.216 236.686 131.277 236.751C131.338 236.816 131.372 236.903 131.372 236.995C131.372 237.086 131.338 237.174 131.277 237.239C131.216 237.304 131.134 237.34 131.048 237.34Z" fill="#3F3D56"/>
<path d="M285.892 126.259C296.445 126.259 305 117.147 305 105.906C305 94.6652 296.445 85.5527 285.892 85.5527C275.339 85.5527 266.783 94.6652 266.783 105.906C266.783 117.147 275.339 126.259 285.892 126.259Z" fill="#E6E6E6"/>
<path d="M287.714 120.413C286.936 120.39 285.967 120.361 285.222 119.78C284.999 119.601 284.817 119.371 284.687 119.108C284.557 118.845 284.482 118.555 284.468 118.258C284.455 118.047 284.487 117.836 284.563 117.64C284.639 117.445 284.757 117.271 284.906 117.132C285.128 116.955 285.389 116.84 285.663 116.798C285.938 116.756 286.218 116.788 286.478 116.891L285.843 111.945L286.309 111.877L287.056 117.691L286.667 117.501C286.215 117.28 285.595 117.168 285.21 117.515C285.115 117.605 285.042 117.718 284.995 117.844C284.948 117.969 284.929 118.105 284.939 118.24C284.95 118.461 285.006 118.677 285.103 118.873C285.2 119.069 285.335 119.24 285.499 119.376C286.08 119.827 286.852 119.886 287.727 119.912L287.714 120.413Z" fill="#3F3D56"/>
<path d="M283.536 112.372H281.001V112.873H283.536V112.372Z" fill="#3F3D56"/>
<path d="M291.539 112.372H289.004V112.873H291.539V112.372Z" fill="#3F3D56"/>
<path d="M276.596 105.447C274.554 105.199 272.973 103.116 272.799 101.002C272.593 98.4864 273.968 96.0976 275.855 94.6862C277.828 93.2102 280.286 92.5938 282.664 92.4581C287.304 92.2122 291.863 93.813 295.456 96.9493C297.238 98.5258 298.903 100.534 299.533 102.96C300.081 105.067 299.636 107.453 298.045 108.929C297.651 109.29 297.192 109.561 296.695 109.724C296.198 109.887 295.675 109.938 295.159 109.875C293.925 109.738 292.786 109.047 291.8 108.284C289.883 106.799 288.308 104.73 285.972 103.954C284.259 103.385 282.036 103.886 280.99 105.536C280.752 105.913 280.598 106.344 280.539 106.794C280.518 106.89 280.531 106.991 280.577 107.077C280.623 107.163 280.697 107.227 280.786 107.257C280.876 107.282 280.972 107.269 281.054 107.22C281.135 107.171 281.195 107.09 281.22 106.994C281.495 104.916 283.894 104.14 285.578 104.615C288.032 105.307 289.68 107.64 291.694 109.122C292.736 109.95 293.965 110.472 295.256 110.636C296.375 110.73 297.486 110.366 298.363 109.62C300.084 108.172 300.742 105.684 300.361 103.443C299.921 100.848 298.281 98.6237 296.482 96.9018C292.835 93.448 288.099 91.5848 283.22 91.6834C280.731 91.7443 278.135 92.2916 275.99 93.6927C273.911 95.0517 272.303 97.3255 272.093 99.9684C271.908 102.295 273.08 104.728 275.092 105.747C275.566 105.986 276.074 106.139 276.596 106.2C277.047 106.254 277.043 105.502 276.596 105.447L276.596 105.447Z" fill="#3F3D56"/>
</g>
<defs>
<clipPath id="clip0">
<rect width="305" height="237.34" fill="white"/>
</clipPath>
</defs>
</svg>
