<svg width="411" height="300" viewBox="0 0 411 300" fill="none" xmlns="http://www.w3.org/2000/svg">
<path d="M109.468 182.38C108.362 182.38 107.244 182.364 106.147 182.335L106.172 181.642C107.747 181.684 109.355 181.696 110.938 181.677L110.949 182.371C110.456 182.377 109.962 182.379 109.468 182.38ZM115.748 182.219L115.701 181.527C117.279 181.446 118.877 181.332 120.451 181.189L120.535 181.878C118.949 182.023 117.338 182.137 115.748 182.219ZM101.351 182.111C99.7604 182.005 98.1525 181.866 96.5723 181.697L96.6697 181.009C98.2378 181.176 99.8332 181.314 101.412 181.419L101.351 182.111ZM125.298 181.348L125.178 180.663C126.746 180.456 128.326 180.216 129.872 179.949L130.028 180.629C128.469 180.898 126.878 181.14 125.298 181.348ZM91.8207 181.095C90.2488 180.863 88.6622 180.597 87.105 180.303L87.2742 179.625C88.8196 179.917 90.3939 180.181 91.9539 180.411L91.8207 181.095ZM134.716 179.721L134.524 179.048C136.063 178.717 137.611 178.351 139.124 177.961L139.35 178.626C137.826 179.019 136.266 179.388 134.716 179.721ZM82.4367 179.323C80.8948 178.967 79.3433 178.575 77.825 178.157L78.0653 177.496C79.5721 177.91 81.1118 178.299 82.6415 178.653L82.4367 179.323ZM143.922 177.347L143.66 176.692C145.154 176.24 146.655 175.752 148.125 175.241L148.421 175.885C146.941 176.4 145.427 176.892 143.922 177.347H143.922ZM73.2683 176.803C71.7709 176.325 70.2641 175.809 68.7902 175.269L69.0999 174.63C70.5625 175.165 72.0575 175.678 73.5437 176.153L73.2683 176.803ZM152.828 174.249L152.498 173.618C153.932 173.051 155.373 172.446 156.782 171.82L157.145 172.438C155.725 173.069 154.273 173.678 152.828 174.249H152.828ZM161.362 170.456L160.968 169.854C162.343 169.172 163.716 168.455 165.048 167.722L165.474 168.308C164.132 169.046 162.749 169.769 161.363 170.456H161.362ZM169.468 165.998L169.012 165.43C170.307 164.643 171.599 163.819 172.853 162.982L173.339 163.532C172.076 164.376 170.774 165.206 169.468 165.998ZM47.89 165.021C46.6026 164.208 45.3164 163.357 44.0671 162.49L44.5648 161.948C45.8046 162.808 47.081 163.654 48.3586 164.46L47.89 165.021ZM177.077 160.914L176.563 160.384C177.77 159.499 178.971 158.576 180.134 157.641L180.675 158.151C179.504 159.092 178.294 160.022 177.077 160.914H177.077ZM40.3817 159.81C39.1826 158.897 37.9914 157.947 36.8412 156.987L37.3935 156.487C38.5351 157.44 39.7172 158.382 40.9071 159.288L40.3817 159.81ZM184.126 155.246L183.558 154.759C184.671 153.779 185.771 152.765 186.829 151.745L187.422 152.208C186.356 153.237 185.247 154.259 184.126 155.246ZM33.4529 154.029C32.3528 153.023 31.2663 151.984 30.2236 150.939L30.8261 150.485C31.8608 151.521 32.939 152.553 34.0309 153.551L33.4529 154.029ZM190.555 149.043L189.939 148.603C190.944 147.539 191.934 146.442 192.882 145.34L193.521 145.755C192.566 146.865 191.568 147.971 190.555 149.043L190.555 149.043ZM27.16 147.726C26.172 146.641 25.1993 145.521 24.2685 144.396L24.9159 143.991C25.8396 145.107 26.8049 146.219 27.7855 147.296L27.16 147.726ZM196.31 142.353L195.65 141.964C196.54 140.825 197.411 139.653 198.24 138.48L198.92 138.843C198.084 140.025 197.206 141.206 196.31 142.353L196.31 142.353ZM21.5557 140.956C20.6866 139.798 19.8359 138.606 19.0271 137.412L19.7142 137.06C20.5169 138.244 21.3612 139.427 22.2237 140.577L21.5557 140.956ZM201.342 135.231L200.644 134.896C201.409 133.691 202.153 132.454 202.856 131.218L203.571 131.526C202.863 132.771 202.113 134.017 201.342 135.231ZM205.602 127.735L204.871 127.456C205.507 126.194 206.117 124.902 206.685 123.615L207.43 123.864C206.857 125.16 206.242 126.463 205.602 127.735ZM12.5994 126.238C11.9879 124.962 11.4023 123.657 10.859 122.358L11.6087 122.121C12.1478 123.41 12.7289 124.705 13.3356 125.971L12.5994 126.238ZM209.051 119.922L208.294 119.704C208.792 118.4 209.261 117.067 209.69 115.743L210.458 115.93C210.026 117.265 209.552 118.608 209.051 119.922ZM9.32239 118.403C8.84779 117.081 8.40182 115.731 7.99693 114.389L8.76853 114.213C9.1703 115.545 9.61296 116.885 10.0839 118.196L9.32239 118.403ZM211.651 111.886L210.874 111.729C211.231 110.392 211.557 109.027 211.844 107.673L212.629 107.798C212.34 109.163 212.011 110.539 211.651 111.886V111.886ZM6.8861 110.328C6.55347 108.973 6.25239 107.593 5.99143 106.226L6.77821 106.112C7.03742 107.469 7.33616 108.839 7.66626 110.183L6.8861 110.328ZM213.389 103.676L212.599 103.582C212.813 102.224 212.994 100.839 213.137 99.4656L213.932 99.5279C213.788 100.912 213.605 102.307 213.389 103.676V103.676ZM5.31409 102.093C5.12596 100.72 4.97153 99.322 4.85487 97.9374L5.65062 97.8867C5.7661 99.261 5.91957 100.648 6.10633 102.011L5.31409 102.093ZM214.257 95.3631L213.46 95.3319C213.531 93.9579 213.567 92.5642 213.567 91.1898H214.365C214.365 92.5747 214.328 93.9789 214.257 95.3631ZM4.61319 93.7676C4.58592 92.9173 4.57211 92.0498 4.5719 91.1898C4.5719 90.6562 4.57716 90.1235 4.58767 89.5919L5.38536 89.6041C5.37485 90.1317 5.36959 90.6602 5.36959 91.1898C5.36979 92.0434 5.38361 92.9045 5.41049 93.7486L4.61319 93.7676ZM5.57466 85.4642L4.77853 85.4208C4.87805 84.0353 5.01554 82.6358 5.18672 81.2613L5.97974 81.3359C5.80972 82.7002 5.67358 84.089 5.57465 85.4642H5.57466ZM213.052 81.2335C212.892 79.8664 212.673 79.1999 212.442 77.8387L213.231 77.7374C213.464 79.1089 213.664 80.1559 213.825 81.5333L213.052 81.2335ZM6.60078 77.2283L5.81244 77.1224C6.05684 75.7505 6.34079 74.3678 6.65648 73.0122L7.43821 73.1497C7.12504 74.495 6.84324 75.8672 6.60078 77.2283ZM211.637 73.7556C211.333 72.4029 210.99 71.0412 210.616 69.7085L211.391 69.5446C211.767 70.8875 212.113 72.2597 212.42 73.6226L211.637 73.7556ZM8.49023 69.109L7.7165 68.9404C8.10385 67.5973 8.53288 66.2431 8.99171 64.9151L9.7555 65.1145C9.30039 66.4323 8.87467 67.7762 8.49023 69.109ZM209.382 65.7064C208.938 64.386 208.452 63.0578 207.938 61.7583L208.692 61.5327C209.21 62.8423 209.7 64.181 210.148 65.5113L209.382 65.7064ZM11.2362 61.1642L10.4837 60.9343C11.0138 59.6234 11.5862 58.3062 12.1848 57.0193L12.9245 57.2794C12.3303 58.5563 11.7622 59.8634 11.2362 61.1642ZM206.285 57.8721C205.703 56.5959 205.08 55.3152 204.432 54.0652L205.16 53.7804C205.812 55.04 206.44 56.3306 207.026 57.6165L206.285 57.8721ZM14.8164 53.4677L14.0916 53.1782C14.7578 51.9169 15.4669 50.6521 16.1992 49.4189L16.9081 49.7368C16.1812 50.9607 15.4776 52.2159 14.8164 53.4677ZM202.381 50.3348C201.667 49.1106 200.911 47.8838 200.133 46.6891L200.827 46.3474C201.611 47.5515 202.373 48.7876 203.092 50.0213L202.381 50.3348ZM19.1946 46.0945L18.5032 45.7485C19.299 44.5473 20.1381 43.3449 20.9976 42.175L21.6698 42.5481C20.817 43.7092 19.9841 44.9024 19.1946 46.0945ZM197.694 43.1351C196.852 41.9686 195.969 40.8065 195.071 39.681L195.726 39.2859C196.631 40.42 197.521 41.5909 198.37 42.7664L197.694 43.1351ZM24.3289 39.1049L23.6769 38.7053C24.5965 37.5715 25.558 36.4414 26.5353 35.3464L27.1655 35.7713C26.1958 36.8583 25.2413 37.9797 24.3289 39.1049ZM192.268 36.3338C191.307 35.2392 190.306 34.1511 189.292 33.0998L189.904 32.6543C190.925 33.7138 191.934 34.81 192.902 35.9129L192.268 36.3338ZM30.1734 32.5548L29.5661 32.1051C30.5981 31.0514 31.6737 30.0026 32.7629 28.9878L33.346 29.4608C32.2651 30.468 31.1977 31.509 30.1734 32.5548ZM186.15 29.9861C185.078 28.9722 183.967 27.9672 182.846 26.9995L183.409 26.5075C184.538 27.4829 185.657 28.4953 186.737 29.5168L186.15 29.9861ZM36.6764 26.4967L36.1186 26.001C37.2593 25.0309 38.4397 24.0718 39.6266 23.1504L40.1579 23.6678C38.9799 24.582 37.8085 25.5339 36.6764 26.4967ZM179.39 24.1459C178.216 23.22 177.004 22.3068 175.787 21.4317L176.295 20.8974C177.521 21.7791 178.743 22.6992 179.926 23.6323L179.39 24.1459ZM43.7832 20.9796L43.2795 20.4419C44.5133 19.5685 45.7883 18.7071 47.0694 17.8816L47.5446 18.4386C46.273 19.258 45.0076 20.1128 43.7832 20.9796ZM51.4339 16.0501L50.9887 15.4748C52.3091 14.7025 53.6684 13.9462 55.0291 13.2265L55.4436 13.819C54.0934 14.5332 52.7443 15.2838 51.4339 16.0501ZM59.5654 11.7502L59.1825 11.1417C60.5795 10.4772 62.0118 9.8325 63.4397 9.22521L63.7903 9.84824C62.3733 10.4508 60.9518 11.0906 59.5654 11.7502ZM155.835 10.1435C154.415 9.52876 152.961 8.93486 151.513 8.37837L151.836 7.74417C153.295 8.30489 154.76 8.90337 156.191 9.52285L155.835 10.1435ZM68.1094 8.11714L67.7924 7.48089C69.2522 6.93083 70.7455 6.40329 72.2307 5.91282L72.5139 6.56124C71.04 7.04783 69.5582 7.57131 68.1094 8.11714ZM147.101 6.7876C145.624 6.2897 144.113 5.81463 142.608 5.3758L142.862 4.71823C144.378 5.16061 145.901 5.63923 147.39 6.14121L147.101 6.7876ZM77.0071 5.17993L76.7586 4.52101C78.2745 4.08895 79.8212 3.68212 81.3555 3.31219L81.5687 3.98026C80.0462 4.34747 78.5113 4.75109 77.0071 5.17993ZM138.056 4.14888C136.534 3.77185 134.983 3.42072 133.444 3.10531L133.627 2.43047C135.178 2.74825 136.741 3.10209 138.275 3.48184L138.056 4.14888ZM86.1893 2.96462L86.0117 2.2886C87.5658 1.97996 89.1489 1.69875 90.7168 1.45292L90.8586 2.13521C89.3024 2.37934 87.7315 2.65835 86.1893 2.96462ZM128.781 2.24796C127.228 1.99452 125.646 1.76901 124.078 1.5777L124.189 0.891015C125.768 1.08385 127.363 1.31105 128.928 1.56636L128.781 2.24796ZM95.567 1.49339L95.4615 0.806032C97.0405 0.622847 98.6464 0.468782 100.234 0.348581L100.304 1.03933C98.7278 1.15885 97.1344 1.31156 95.567 1.49339ZM119.345 1.09554C117.773 0.966868 116.174 0.867659 114.591 0.801122L114.63 0.108356C116.225 0.17557 117.836 0.275459 119.419 0.405157L119.345 1.09554ZM105.06 0.773356L105.027 0.0805901C106.493 0.0274296 107.987 0.000339795 109.468 0L109.829 0.000509888L109.827 0.693969L109.468 0.693459C107.998 0.693778 106.515 0.720698 105.06 0.773348V0.773356Z" fill="#3F3D56"/>
<path d="M237.808 32.6639V257.414C237.805 260.091 236.58 262.658 234.401 264.55C232.223 266.443 229.269 267.506 226.19 267.507H121.233C119.708 267.509 118.196 267.25 116.786 266.744C115.376 266.237 114.094 265.494 113.015 264.557C111.936 263.619 111.08 262.505 110.496 261.28C109.913 260.054 109.613 258.74 109.615 257.414V32.6639C109.615 31.3375 109.915 30.0241 110.499 28.7986C111.083 27.5732 111.939 26.4597 113.018 25.5218C114.097 24.5838 115.377 23.8399 116.787 23.3323C118.197 22.8248 119.708 22.5636 121.233 22.5637H136.94V24.3147C136.94 26.5203 137.947 28.6356 139.741 30.1955C141.534 31.7554 143.967 32.6321 146.504 32.6327H199.886C201.928 32.6365 203.917 32.0674 205.557 31.01C205.889 30.8004 206.203 30.571 206.499 30.3235C207.433 29.5479 208.176 28.6154 208.684 27.5825C209.191 26.5496 209.452 25.4378 209.45 24.3147V22.5637H226.19C227.715 22.5633 229.226 22.8243 230.636 23.3317C232.046 23.8392 233.327 24.5831 234.406 25.5211C235.485 26.4591 236.341 27.5727 236.924 28.7983C237.508 30.0239 237.808 31.3375 237.808 32.6639Z" fill="#3F3D56"/>
<path d="M222.463 103.584H124.96V168.076H222.463V103.584Z" fill="#FFB4B4"/>
<path d="M73.6154 92.7177C82.2966 92.8796 89.2024 98.3486 89.2024 98.3486C89.2024 98.3486 82.0332 103.555 73.352 103.393C64.6708 103.231 57.765 97.7624 57.765 97.7624C57.765 97.7624 64.9342 92.5558 73.6154 92.7177Z" fill="#FFB4B4"/>
<path d="M29.9708 66.9565C37.8139 70.1957 46.8074 67.9991 46.8074 67.9991C46.8074 67.9991 43.0848 60.5507 35.2417 57.3115C27.3986 54.0723 18.4051 56.2689 18.4051 56.2689C18.4051 56.2689 22.1278 63.7172 29.9708 66.9565Z" fill="#FFB4B4"/>
<path d="M30.7681 63.7375C39.4152 63.0505 46.9841 67.8104 46.9841 67.8104C46.9841 67.8104 40.5331 73.6842 31.886 74.3712C23.2388 75.0582 15.67 70.2983 15.67 70.2983C15.67 70.2983 22.1209 64.4245 30.7681 63.7375Z" fill="#3F3D56"/>
<path d="M62.4659 65.039C61.6371 72.5531 67.0786 79.1541 67.0786 79.1541C67.0786 79.1541 73.864 73.5723 74.6928 66.0582C75.5217 58.5441 70.0801 51.9431 70.0801 51.9431C70.0801 51.9431 63.2947 57.5249 62.4659 65.039Z" fill="#3F3D56"/>
<path d="M103.19 111.123C98.6542 117.56 100.215 125.567 100.215 125.567C100.215 125.567 109.128 123.137 113.664 116.7C118.199 110.263 116.639 102.256 116.639 102.256C116.639 102.256 107.725 104.686 103.19 111.123Z" fill="#3F3D56"/>
<path d="M90.0317 181.11L90.6926 180.721C88.3629 177.782 87.0908 174.307 87.038 170.738C87.0565 165.517 90.0064 160.688 92.8592 156.018C93.3888 155.151 93.9165 154.287 94.4242 153.424C96.5554 149.903 98.2537 146.196 99.4912 142.366C103.916 128.07 99.5596 111.204 87.8372 97.2486C78.538 86.1779 64.6756 76.4973 45.4584 67.6533L45.0852 68.2662C64.193 77.0597 77.9666 86.6738 87.193 97.6576C98.7743 111.445 103.084 128.091 98.7208 142.186C97.4978 145.969 95.8196 149.63 93.7142 153.108C93.2081 153.968 92.6822 154.829 92.1546 155.693C89.2564 160.437 86.2594 165.343 86.2403 170.736C86.293 174.444 87.6127 178.055 90.0317 181.11Z" fill="#3F3D56"/>
<path d="M7.57821 68.5645C11.7635 68.5645 15.1563 65.615 15.1563 61.9767C15.1563 58.3383 11.7635 55.3888 7.57821 55.3888C3.39297 55.3888 0.000152588 58.3383 0.000152588 61.9767C0.000152588 65.615 3.39297 68.5645 7.57821 68.5645Z" fill="#3F3D56"/>
<path d="M114.254 168.913L66.6841 165.467V104.814L114.254 102.747V168.913Z" fill="#FFB4B4"/>
<path d="M233.169 168.913L280.739 165.467V104.814L233.169 102.747V168.913Z" fill="#FFB4B4"/>
<path d="M190.247 127.79C188.832 126.728 187.087 126.051 185.232 125.846C183.377 125.641 181.493 125.917 179.817 126.638C178.361 127.25 176.795 127.639 175.188 127.789C175.148 124.762 175.787 121.757 177.07 118.942L177.28 118.47H174.484L174.404 118.725C174.092 119.721 173.847 120.731 173.669 121.75C173.518 121.308 173.322 120.879 173.084 120.467C171.123 117.087 166.591 115.704 166.399 115.647L166.013 115.532L165.89 115.87C165.829 116.039 164.414 120.028 166.375 123.408C167.779 125.828 170.5 127.224 172.003 127.843C170.101 127.736 168.241 127.304 166.531 126.57C165.466 126.093 164.267 125.886 163.072 125.974C161.877 126.061 160.735 126.44 159.776 127.066C154.556 130.515 151.562 135.57 151.562 140.935C151.562 147.983 156.812 154.438 164.938 157.379C165.671 157.644 166.457 157.779 167.251 157.778C168.353 157.779 169.435 157.521 170.382 157.032C171.642 156.395 173.073 156.058 174.53 156.056C175.987 156.053 177.419 156.385 178.682 157.017C179.498 157.436 180.415 157.684 181.361 157.742C182.306 157.8 183.254 157.666 184.13 157.351C192.209 154.398 197.429 147.955 197.429 140.935C197.429 135.911 194.878 131.243 190.247 127.79ZM175.094 119.164H176.121C174.966 121.852 174.378 124.699 174.384 127.569H174.2C173.953 124.743 174.255 121.902 175.094 119.164ZM167.087 123.096C165.598 120.53 166.251 117.471 166.54 116.439C167.666 116.85 170.88 118.208 172.371 120.779C173.86 123.345 173.207 126.403 172.919 127.435C171.792 127.023 168.575 125.661 167.087 123.096ZM183.821 156.712C183.059 156.985 182.235 157.101 181.414 157.051C180.592 157 179.795 156.784 179.086 156.419C177.7 155.724 176.128 155.359 174.528 155.362C172.928 155.365 171.357 155.736 169.975 156.436C169.267 156.802 168.472 157.02 167.651 157.072C166.83 157.125 166.006 157.011 165.245 156.739C157.417 153.906 152.359 147.703 152.359 140.935C152.359 135.788 155.238 130.934 160.258 127.618C161.221 126.986 162.396 126.645 163.603 126.648C164.495 126.647 165.373 126.832 166.166 127.187C168.351 128.093 170.739 128.569 173.16 128.582C175.58 128.594 177.975 128.143 180.172 127.259C181.708 126.598 183.433 126.346 185.133 126.535C186.833 126.723 188.431 127.343 189.727 128.317C194.179 131.635 196.631 136.116 196.631 140.935C196.631 147.675 191.603 153.867 183.821 156.712Z" fill="white"/>
<path d="M90.3388 121.237V120.423H90.7109V117.887C90.7123 117.699 90.6543 117.515 90.5431 117.353C90.4319 117.192 90.2719 117.061 90.0805 116.973C88.4343 116.226 86.6652 116.227 84.8223 116.977C84.6189 117.061 84.4471 117.193 84.3269 117.359C84.2067 117.524 84.1431 117.716 84.1434 117.912V120.423H84.5156V121.16C83.1457 121.494 81.9396 122.209 81.0823 123.196C80.225 124.183 79.7638 125.387 79.7694 126.624V132.111L80.4783 132.317L79.7694 132.728V134.377L80.4783 134.582L79.7694 134.993V136.642L80.4783 136.847L79.7694 137.258V149.818C79.7706 150.797 80.2189 151.737 81.0157 152.429C81.8125 153.122 82.8929 153.512 84.0198 153.513H90.2858C91.4101 153.512 92.4881 153.123 93.2831 152.432C94.0782 151.741 94.5254 150.804 94.5266 149.826V137.258L93.8177 136.848L94.5266 136.642V134.993L93.8177 134.582L94.5266 134.377V132.728L93.8177 132.317L94.5266 132.111V126.341C94.5219 125.218 94.1165 124.124 93.3664 123.21C92.6163 122.296 91.5585 121.607 90.3388 121.237ZM85.16 117.605C86.7891 116.943 88.2781 116.938 89.7113 117.588C89.7729 117.617 89.8243 117.661 89.8598 117.713C89.8954 117.766 89.9138 117.826 89.9132 117.887V119.245H84.9411V117.912C84.9404 117.848 84.9607 117.785 84.9994 117.731C85.0381 117.676 85.0938 117.633 85.16 117.605ZM93.7289 131.612L92.0183 132.107L93.7289 133.099V133.877L92.0183 134.373L93.7289 135.364V136.142L92.0183 136.638L93.7289 137.63V149.826C93.7279 150.62 93.3648 151.381 92.7193 151.942C92.0738 152.503 91.1986 152.819 90.2858 152.82H84.0198C83.1043 152.819 82.2267 152.502 81.5794 151.939C80.9322 151.377 80.5681 150.614 80.5671 149.818V137.63L82.2777 136.638L80.5671 136.142V135.364L82.2777 134.373L80.5671 133.877V133.099L82.2777 132.107L80.5671 131.612V126.624C80.562 125.497 80.9987 124.401 81.8052 123.519C82.6118 122.636 83.7401 122.018 85.0044 121.767L85.3133 121.705V120.423H89.5411V121.751L89.8287 121.824C90.9515 122.112 91.9376 122.706 92.6403 123.52C93.343 124.334 93.7248 125.323 93.7289 126.341V131.612Z" fill="white"/>
<path d="M277.821 130.734L275.813 130.385L276.286 129.563L275.365 129.402L275.524 128.57L274.518 128.424V127.634L273.702 127.431L274.477 126.59H273.133L273.414 125.98L272.42 125.836L272.757 124.809H271.682V123.85H271.283C270.026 123.85 269.326 125.147 269.095 125.667C262.159 126.718 242.017 138.846 239.718 140.241C238.763 139.972 237.347 140.603 237.051 140.743L236.583 140.965L237.258 141.552L237.057 142.077L238.296 142.481L238.025 143.071L238.805 143.637L238.104 144.094L239.159 144.645L238.974 145.449L240.153 145.596V146.401L240.837 146.52L240.496 147.56H241.256V148.382H241.997L242.333 149.257L242.679 149.197C243.481 149.058 244.168 148.093 244.437 147.665C251.117 146.628 271.743 134.013 273.751 132.778C276.095 133.022 276.956 132.477 277.048 132.413L277.429 132.148L276.519 131.488L277.821 130.734ZM273.7 132.073L273.544 132.055L273.416 132.134C273.188 132.275 250.568 146.206 244.12 147.007L243.913 147.033L243.819 147.195C243.572 147.633 243.238 148.03 242.833 148.368L242.572 147.688H242.053V146.866H241.553L241.842 145.988L240.95 145.833V144.994L239.922 144.867L240.052 144.301L239.531 144.03L240.091 143.665L238.981 142.861L239.339 142.081L238.057 141.663L238.171 141.365L237.924 141.15C238.523 140.933 239.247 140.772 239.558 140.934L239.781 141.05L239.993 140.921C240.219 140.783 262.686 127.122 269.446 126.321L269.698 126.291L269.773 126.079C269.889 125.751 270.302 124.923 270.884 124.64V125.502H271.7L271.407 126.392L272.305 126.522L271.954 127.283H272.817L272.331 127.812L273.721 128.157V129.011L274.606 129.139L274.451 129.951L275.106 130.064L274.633 130.886L275.776 131.085L275.188 131.427L276.034 132.04C275.265 132.176 274.474 132.187 273.7 132.073Z" fill="white"/>
<path d="M173.712 197.548C180.1 197.548 185.278 193.046 185.278 187.493C185.278 181.939 180.1 177.437 173.712 177.437C167.324 177.437 162.145 181.939 162.145 187.493C162.145 193.046 167.324 197.548 173.712 197.548Z" fill="#FFB4B4"/>
<path d="M180.994 186.5H174.854V181.162H172.569V186.5H166.429V188.486H172.569V193.823H174.854V188.486H180.994V186.5Z" fill="white"/>
<path d="M210.192 187.839L204.209 185.412V186.799H190.25V188.879H204.209V190.266L210.192 187.839Z" fill="white"/>
<path d="M137.231 187.839L143.214 185.412V186.799H157.174V188.879H143.214V190.266L137.231 187.839Z" fill="white"/>
<path d="M319.888 267.587H27.5349V268.28H319.888V267.587Z" fill="#3F3D56"/>
<path d="M212.001 55.3887H135.423V56.0821H212.001V55.3887Z" fill="white"/>
<path d="M212.186 244.703H135.608V245.396H212.186V244.703Z" fill="white"/>
</svg>
