<svg width="377" height="274" viewBox="0 0 377 274" fill="none" xmlns="http://www.w3.org/2000/svg">
<path opacity="0.1" d="M126.004 273.018C144.315 273.018 159.159 270.574 159.159 267.56C159.159 264.546 144.315 262.102 126.004 262.102C107.693 262.102 92.8495 264.546 92.8495 267.56C92.8495 270.574 107.693 273.018 126.004 273.018Z" fill="#FFB4B4"/>
<path opacity="0.1" d="M306.229 273.171C329.079 273.171 347.602 270.728 347.602 267.713C347.602 264.699 329.079 262.256 306.229 262.256C283.38 262.256 264.857 264.699 264.857 267.713C264.857 270.728 283.38 273.171 306.229 273.171Z" fill="#FFB4B4"/>
<path opacity="0.1" d="M5.7092 118.144H40.2421V166.385H8.23733C8.15227 166.88 8.0706 167.379 7.98214 167.877H40.2421V206.782C40.1843 206.765 40.1332 206.744 40.0788 206.723C39.1669 206.353 38.2618 205.963 37.3567 205.544L36.7783 205.276C35.8709 204.836 34.9636 204.371 34.0562 203.881C33.7398 203.71 33.4233 203.532 33.1103 203.351C28.073 200.459 23.4969 196.794 19.5407 192.484C19.4251 192.369 19.3162 192.247 19.2005 192.135C18.6493 191.522 18.1083 190.901 17.5843 190.266L17.0058 189.569C16.3865 188.791 15.7877 187.992 15.2058 187.183C15.1208 187.065 15.0391 186.946 14.9506 186.835C12.5843 183.472 10.6195 179.831 9.09819 175.989C9.05055 175.874 9.00972 175.748 8.96549 175.64C8.4982 174.408 8.08421 173.164 7.72354 171.909C7.56702 171.382 7.41731 170.862 7.28801 170.315C7.24037 170.155 7.19954 169.998 7.16211 169.841C5.22944 162.109 5.00146 154.078 5.00146 146.102C5.00146 145.171 5.00146 144.236 5.00146 143.312C5.00146 140.087 5.03889 136.84 5.09334 133.597C5.09334 132.756 5.12736 131.919 5.14437 131.075C5.19201 128.934 5.26006 126.793 5.34853 124.651C5.36895 124.055 5.39617 123.462 5.42679 122.869C5.42679 122.528 5.4438 122.186 5.47783 121.844C5.55949 120.603 5.62754 119.372 5.7092 118.144Z" fill="#FFB4B4"/>
<path opacity="0.1" d="M40.2421 64.432H21.2999C24.379 59.4925 27.7434 54.746 31.3749 50.2179C34.1889 46.6748 37.1593 43.2224 40.2421 39.8955V64.432Z" fill="#FFB4B4"/>
<path opacity="0.1" d="M40.2421 65.9248V116.652H5.81805C5.81805 116.505 5.84187 116.355 5.85208 116.209C5.8827 115.808 5.91333 115.407 5.94735 115.009C5.98478 114.542 6.02561 114.071 6.06985 113.614C6.11408 113.157 6.16172 112.599 6.21275 112.094C6.26379 111.588 6.31143 111.075 6.36927 110.57C6.42712 110.064 6.47816 109.558 6.5394 109.056C6.60065 108.554 6.65509 108.045 6.71974 107.543C6.77078 107.124 6.82522 106.709 6.87966 106.291C6.95792 105.701 7.03958 105.109 7.12805 104.523C7.12805 104.436 7.15187 104.345 7.16548 104.261C7.78652 99.9723 8.63272 95.7209 9.70041 91.5254C10.818 87.1243 12.2452 82.812 13.9707 78.6222C15.8045 74.2392 17.9517 70.0011 20.3948 65.9422L40.2421 65.9248Z" fill="#FFB4B4"/>
<path opacity="0.1" d="M48.4866 118.141V166.385H122.245V118.141H48.4866ZM48.4866 167.874V209.304C48.9085 209.394 49.327 209.482 49.7421 209.555C50.307 209.666 50.8684 209.767 51.4434 209.855C51.5523 209.872 51.6646 209.89 51.7837 209.9C52.0083 209.938 52.2396 209.97 52.4642 210.001C53.0324 210.081 53.5973 210.148 54.1655 210.2C54.4343 210.228 54.7065 210.252 54.9787 210.273L55.6354 210.325C55.9927 210.353 56.3466 210.374 56.697 210.385C56.9148 210.385 57.1326 210.406 57.3571 210.413C57.5273 210.413 57.6974 210.413 57.8743 210.413C58.0513 210.413 58.303 210.413 58.5174 210.413C58.81 210.413 59.1027 210.413 59.3919 210.413H59.7832C60.0758 210.413 60.3684 210.413 60.6576 210.385H60.6781C60.8788 210.385 61.083 210.385 61.2871 210.357C61.3438 210.36 61.4006 210.36 61.4572 210.357C61.6274 210.357 61.7975 210.357 61.9608 210.332H62.0799L63.2198 210.242C63.5941 210.207 63.9718 210.162 64.3529 210.12L65.1286 210.026C68.2848 209.572 71.4059 208.892 74.4688 207.989C81.3488 206.022 88.0791 203.271 94.9558 201.255C103.847 198.657 113.67 197.38 122.262 200.557V167.874H48.4866ZM122.245 64.4322V0.205654C114.169 0.115986 106.116 1.08401 98.2801 3.08621C79.6033 7.89526 62.8455 18.3259 48.4866 31.6476V64.4287H52.1886V65.9178H48.4866V116.652H122.245V65.9213H67.388V64.4322H122.245ZM216.983 42.7374C212.362 42.57 207.769 41.0704 203.614 38.7548C195.669 34.3259 189.323 27.4872 182.232 21.7156C167.499 9.69473 149.227 2.44105 130.482 0.641573V64.4322H235.775L236.037 64.1497L216.983 42.7374ZM226.575 40.9937L236.745 52.4322V37.9946C233.339 38.427 230.355 39.4558 226.588 40.9797L226.575 40.9937ZM236.745 219.591V167.874H215.074C215.016 167.654 214.958 167.431 214.89 167.208C214.955 167.431 215.009 167.654 215.071 167.874H130.496V205.276C131.299 205.886 132.092 206.528 132.878 207.18C133.725 207.877 134.562 208.613 135.402 209.335L136.25 210.053C136.655 210.402 137.063 210.751 137.475 211.079C138.291 211.758 139.116 212.427 139.948 213.087C140.36 213.436 140.782 213.75 141.2 214.078C147.845 219.284 154.854 223.983 162.171 228.135C163.811 229.065 165.465 229.973 167.135 230.859C168.248 231.441 169.367 232.02 170.49 232.582C172.178 233.426 173.879 234.239 175.594 235.023C191.404 242.297 208.123 247.288 225.272 249.855C229.08 250.431 232.904 250.884 236.742 251.215V219.588H237.082L236.745 219.591ZM130.496 65.9213V116.652H236.759V65.9213H130.496ZM130.496 118.141V166.385H236.759V118.141H130.496ZM245.007 37.9318V54.0364L257.988 39.4383C253.687 38.7269 249.36 38.2189 245.007 37.9144V37.9318ZM245.007 118.158V166.385H348.36V118.141L245.007 118.158ZM347.983 223.42L348.347 167.874H245.007V251.769C251.664 252.056 258.331 251.974 264.98 251.525H265.096C268.271 251.32 271.432 251.023 274.579 250.632H274.65C291.435 248.63 307.848 244.142 323.375 237.307L347.983 223.42ZM368.289 126.085C367.901 125.147 367.497 124.216 367.085 123.295C366.316 121.551 365.503 119.857 364.666 118.162H356.601V166.385H376.99C376.98 152.728 373.608 138.779 368.3 126.068L368.289 126.085ZM356.601 167.891V215.668C362.345 210.026 367.197 203.57 370.692 196.191C374.894 187.305 376.816 177.684 376.973 167.884L356.601 167.891ZM356.601 104.101V116.655H363.91C361.699 112.333 359.263 108.137 356.612 104.083L356.601 104.101ZM286.508 47.3965C285.97 47.1872 285.433 46.9745 284.892 46.7687C279.186 44.6091 273.355 42.8132 267.433 41.3913L247.569 63.7347L247.188 64.1497L247.443 64.4357H318.142C308.296 57.489 297.68 51.7635 286.518 47.379L286.508 47.3965ZM320.214 65.9387H246.456L245.007 67.2988V116.652H257.712H257.732H348.374V92.746C340.174 82.5824 330.711 73.564 320.224 65.9213L320.214 65.9387Z" fill="#FFB4B4"/>
<path opacity="0.1" d="M40.2421 91.5115V116.652H5.81805C5.81805 116.506 5.84187 116.356 5.85208 116.209C5.8827 115.808 5.91333 115.407 5.94735 115.01C5.98478 114.542 6.02561 114.071 6.06985 113.615C6.11408 113.158 6.16172 112.6 6.21275 112.094C6.26379 111.588 6.31143 111.076 6.36927 110.57C6.42712 110.064 6.47816 109.559 6.5394 109.057C6.60065 108.554 6.65509 108.045 6.71974 107.543C6.77078 107.125 6.82522 106.71 6.87966 106.291C6.95792 105.702 7.03958 105.109 7.12805 104.523C7.12805 104.436 7.15187 104.345 7.16548 104.261C7.78652 99.9725 8.63272 95.721 9.70041 91.5254L40.2421 91.5115Z" fill="#FFB4B4"/>
<path opacity="0.1" d="M5.7092 118.144H40.2421V166.385H8.23733C8.15227 166.88 8.0706 167.379 7.98214 167.877H40.2421V206.782C40.1843 206.765 40.1332 206.744 40.0788 206.723C39.1669 206.353 38.2618 205.963 37.3567 205.544L36.7783 205.276C35.8709 204.836 34.9636 204.371 34.0562 203.881C33.7398 203.71 33.4233 203.532 33.1103 203.351C28.073 200.459 23.4969 196.794 19.5407 192.484C19.4251 192.369 19.3162 192.247 19.2005 192.135C18.6493 191.522 18.1083 190.901 17.5843 190.266L17.0058 189.569C16.3865 188.791 15.7877 187.992 15.2058 187.183C15.1208 187.065 15.0391 186.946 14.9506 186.835C12.5843 183.472 10.6195 179.831 9.09819 175.989C9.05055 175.874 9.00972 175.748 8.96549 175.64C8.4982 174.408 8.08421 173.164 7.72354 171.909C7.56702 171.382 7.41731 170.862 7.28801 170.315C7.24037 170.155 7.19954 169.998 7.16211 169.841C5.22944 162.109 5.00146 154.078 5.00146 146.102C5.00146 145.171 5.00146 144.236 5.00146 143.312C5.00146 140.087 5.03889 136.84 5.09334 133.597C5.09334 132.756 5.12736 131.919 5.14437 131.075C5.19201 128.934 5.26006 126.793 5.34853 124.651C5.36895 124.055 5.39617 123.462 5.42679 122.869C5.42679 122.528 5.4438 122.186 5.47783 121.844C5.55949 120.603 5.62754 119.372 5.7092 118.144Z" fill="#FFB4B4"/>
<path opacity="0.1" d="M74.4517 73.1856V116.652H48.4866V73.1856H52.1886V58.469H67.3846V73.1856H74.4517Z" fill="#FFB4B4"/>
<path opacity="0.1" d="M74.4518 118.141H48.49V166.381H74.4518V118.141Z" fill="#FFB4B4"/>
<path opacity="0.1" d="M48.4866 167.877H74.4517V207.982C71.3889 208.884 68.2678 209.564 65.1116 210.015L64.3358 210.113C63.9547 210.158 63.5771 210.197 63.2028 210.235C62.8285 210.273 62.4406 210.301 62.0629 210.326H61.9438C61.7805 210.326 61.6036 210.347 61.4436 210.35H61.2701C61.0659 210.35 60.8618 210.371 60.6576 210.378C60.3684 210.395 60.0792 210.399 59.7832 210.402C59.6573 210.402 59.5382 210.402 59.4123 210.402C59.1197 210.402 58.8304 210.402 58.5378 210.402H57.8947C57.7212 210.402 57.5545 210.402 57.3741 210.402L56.7174 210.378C56.3772 210.378 56.0097 210.34 55.6558 210.315L55.0025 210.266L54.1893 210.19C53.6177 210.137 53.0494 210.071 52.488 209.991L51.8075 209.893L51.4672 209.844C50.899 209.754 50.3376 209.656 49.7659 209.545C49.3474 209.471 48.9323 209.381 48.5104 209.293L48.4866 167.877Z" fill="#FFB4B4"/>
<path opacity="0.1" d="M236.759 68.0521H215.35V116.648H236.759V68.0521Z" fill="#FFB4B4"/>
<path opacity="0.1" d="M236.762 118.141V166.385H130.496V145.576H187.098V157.851H215.35V118.141H236.762Z" fill="#FFB4B4"/>
<path opacity="0.1" d="M237.099 219.602H236.759V251.25C232.925 250.917 229.103 250.465 225.292 249.893C208.135 247.318 191.409 242.316 175.594 235.03C171.027 232.924 166.554 230.624 162.174 228.132C154.857 223.977 147.847 219.279 141.2 214.074C139.531 212.763 137.883 211.422 136.256 210.05C135.13 209.098 134.011 208.122 132.878 207.173C132.092 206.521 131.299 205.879 130.496 205.265V167.878H215.067C215.009 167.654 214.952 167.431 214.89 167.212C214.955 167.431 215.016 167.654 215.074 167.878H236.759V219.581C236.874 219.584 236.987 219.595 237.099 219.602Z" fill="#FFB4B4"/>
<path opacity="0.1" d="M292.595 64.4321H278.645V59.9893H284.899V46.755C285.441 46.9573 285.981 47.1653 286.518 47.3792V59.9893H292.595V64.4321Z" fill="#FFB4B4"/>
<path opacity="0.1" d="M326.206 116.652H257.719C257.719 116.652 257.719 116.652 257.742 116.669L257.712 116.652H245.007V68.0556H248.607V103.975H265.058V82.7025H278.648V65.9248H292.599V82.7164H306.189V103.989H326.206V116.652Z" fill="#FFB4B4"/>
<path opacity="0.1" d="M245.007 118.141V166.385H326.206V118.141H245.007ZM348.248 223.173L348.36 184.986H326.206V167.898H245.007V251.769C251.664 252.056 258.331 251.974 264.98 251.525H265.096C268.271 251.32 271.432 251.023 274.579 250.632H274.65C291.435 248.63 307.848 244.142 323.375 237.307" fill="#FFB4B4"/>
<path opacity="0.1" d="M358.044 167.877H376.986C376.82 177.673 374.901 187.295 370.702 196.181C367.207 203.564 362.352 210.019 356.615 215.658V184.969H358.044V167.877Z" fill="#FFB4B4"/>
<path opacity="0.1" d="M376.997 166.385H358.044V126.068H368.3C373.608 138.779 376.98 152.728 376.997 166.385Z" fill="#FFB4B4"/>
<path opacity="0.1" d="M236.762 81.5625H225.292V96.7985H236.762V81.5625Z" fill="#FFB4B4"/>
<path opacity="0.1" d="M236.762 113.144H225.292V116.652H236.762V113.144Z" fill="#FFB4B4"/>
<path opacity="0.1" d="M236.762 118.141H225.292V128.376H236.762V118.141Z" fill="#FFB4B4"/>
<path opacity="0.1" d="M236.762 144.725H225.292V159.961H236.762V144.725Z" fill="#FFB4B4"/>
<path opacity="0.1" d="M236.762 176.307H225.292V191.543H236.762V176.307Z" fill="#FFB4B4"/>
<path opacity="0.1" d="M236.759 219.581C236.874 219.581 236.987 219.581 237.099 219.602H236.759V223.141H225.292V207.888H236.759V219.581Z" fill="#FFB4B4"/>
<path opacity="0.1" d="M236.759 239.463V251.232C232.925 250.9 229.103 250.447 225.292 249.876V239.463H236.759Z" fill="#FFB4B4"/>
<path opacity="0.1" d="M179.653 165.266H130.496V166.385H179.653V165.266Z" fill="#FFB4B4"/>
<path opacity="0.1" d="M179.653 167.874H130.496V172.163H179.653V167.874Z" fill="#FFB4B4"/>
<path opacity="0.1" d="M179.653 186.224H130.496V193.122H179.653V186.224Z" fill="#FFB4B4"/>
<path opacity="0.1" d="M179.65 207.183V214.081H141.2C139.531 212.775 137.882 211.433 136.253 210.057C135.127 209.105 134.011 208.129 132.874 207.183H179.65Z" fill="#FFB4B4"/>
<path opacity="0.1" d="M179.65 228.139V235.03H175.59C171.029 232.921 166.556 230.621 162.174 228.128L179.65 228.139Z" fill="#FFB4B4"/>
<path opacity="0.1" d="M274.66 122.818H264.983V132.736H274.66V122.818Z" fill="#FFB4B4"/>
<path opacity="0.1" d="M65.1355 76.6066H55.4585V86.5247H65.1355V76.6066Z" fill="#FFB4B4"/>
<path opacity="0.1" d="M65.1355 99.6438H55.4585V109.562H65.1355V99.6438Z" fill="#FFB4B4"/>
<path opacity="0.1" d="M65.1355 122.681H55.4585V132.599H65.1355V122.681Z" fill="#FFB4B4"/>
<path opacity="0.1" d="M65.1355 145.715H55.4585V155.633H65.1355V145.715Z" fill="#FFB4B4"/>
<path opacity="0.1" d="M65.1355 168.753H55.4585V178.671H65.1355V168.753Z" fill="#FFB4B4"/>
<path opacity="0.1" d="M65.1355 191.79H55.4585V201.708H65.1355V191.79Z" fill="#FFB4B4"/>
<path opacity="0.1" d="M311.602 122.818H301.925V132.736H311.602V122.818Z" fill="#FFB4B4"/>
<path opacity="0.1" d="M274.66 147.281H264.983V157.199H274.66V147.281Z" fill="#FFB4B4"/>
<path opacity="0.1" d="M311.602 147.281H301.925V157.199H311.602V147.281Z" fill="#FFB4B4"/>
<path opacity="0.1" d="M274.66 171.742H264.983V181.66H274.66V171.742Z" fill="#FFB4B4"/>
<path opacity="0.1" d="M311.602 171.742H301.925V181.66H311.602V171.742Z" fill="#FFB4B4"/>
<path opacity="0.1" d="M274.66 196.205H264.983V206.123H274.66V196.205Z" fill="#FFB4B4"/>
<path opacity="0.1" d="M311.602 196.205H301.925V206.123H311.602V196.205Z" fill="#FFB4B4"/>
<path opacity="0.1" d="M274.66 220.669H264.983V230.587H274.66V220.669Z" fill="#FFB4B4"/>
<path opacity="0.1" d="M311.602 220.669H301.925V230.587H311.602V220.669Z" fill="#FFB4B4"/>
<path opacity="0.1" d="M264.983 251.525V245.129H274.657V250.615L264.983 251.525Z" fill="#FFB4B4"/>
<path opacity="0.1" d="M7.12463 104.254V109.928H40.2421V104.254H7.12463ZM10.4251 109.573H7.72349V104.603H10.4456L10.4251 109.573ZM13.7223 109.573H11.0002V104.603H13.7223V109.573ZM17.0126 109.573H14.2905V104.603H17.0126V109.573ZM20.3097 109.573H17.591V104.603H20.3131L20.3097 109.573ZM23.6034 109.573H20.8813V104.603H23.6034V109.573ZM26.9005 109.573H24.1784V104.603H26.9005V109.573ZM30.1976 109.573H27.4755V104.603H30.1976V109.573ZM33.4913 109.573H30.7692V104.603H33.4913V109.573ZM36.785 109.573H34.063V104.603H36.785V109.573ZM40.0787 109.573H37.3567V104.603H40.0787V109.573Z" fill="#FFB4B4"/>
<path opacity="0.1" d="M7.12463 120.763V126.438H40.2421V120.763H7.12463ZM10.4251 126.078H7.72349V121.123H10.4456L10.4251 126.078ZM13.7223 126.078H11.0002V121.123H13.7223V126.078ZM17.0126 126.078H14.2905V121.123H17.0126V126.078ZM20.3097 126.078H17.591V121.123H20.3131L20.3097 126.078ZM23.6034 126.078H20.8813V121.123H23.6034V126.078ZM26.9005 126.078H24.1784V121.123H26.9005V126.078ZM30.1976 126.078H27.4755V121.123H30.1976V126.078ZM33.4913 126.078H30.7692V121.123H33.4913V126.078ZM36.785 126.078H34.063V121.123H36.785V126.078ZM40.0787 126.078H37.3567V121.123H40.0787V126.078Z" fill="#FFB4B4"/>
<path opacity="0.1" d="M7.12463 137.279V142.964H40.2421V137.279H7.12463ZM10.4251 142.594H7.72349V137.635H10.4456L10.4251 142.594ZM13.7223 142.594H11.0002V137.635H13.7223V142.594ZM17.0126 142.594H14.2905V137.635H17.0126V142.594ZM20.3097 142.594H17.591V137.635H20.3131L20.3097 142.594ZM23.6034 142.594H20.8813V137.635H23.6034V142.594ZM26.9005 142.594H24.1784V137.635H26.9005V142.594ZM30.1976 142.594H27.4755V137.635H30.1976V142.594ZM33.4913 142.594H30.7692V137.635H33.4913V142.594ZM36.785 142.594H34.063V137.635H36.785V142.594ZM40.0787 142.594H37.3567V137.635H40.0787V142.594Z" fill="#FFB4B4"/>
<path opacity="0.1" d="M7.12463 153.796V159.463H40.2421V153.796H7.12463ZM10.4251 159.11H7.72349V154.148H10.4456L10.4251 159.11ZM13.7223 159.11H11.0002V154.148H13.7223V159.11ZM17.0126 159.11H14.2905V154.148H17.0126V159.11ZM20.3097 159.11H17.591V154.148H20.3131L20.3097 159.11ZM23.6034 159.11H20.8813V154.148H23.6034V159.11ZM26.9005 159.11H24.1784V154.148H26.9005V159.11ZM30.1976 159.11H27.4755V154.148H30.1976V159.11ZM33.4913 159.11H30.7692V154.148H33.4913V159.11ZM36.785 159.11H34.063V154.148H36.785V159.11ZM40.0787 159.11H37.3567V154.148H40.0787V159.11Z" fill="#FFB4B4"/>
<path opacity="0.1" d="M7.26758 170.308C7.40028 170.842 7.54999 171.376 7.70651 171.902V170.664H10.4286V175.623H8.97227C9.01651 175.738 9.06074 175.863 9.10497 175.972H40.2421V170.308H7.26758ZM13.7325 175.623H11.0104V170.664H13.7325V175.623ZM17.0228 175.623H14.3007V170.664H17.0228V175.623ZM20.3199 175.623H17.591V170.664H20.3131L20.3199 175.623ZM23.6136 175.623H20.8915V170.664H23.6136V175.623ZM26.9107 175.623H24.1887V170.664H26.9107V175.623ZM30.2078 175.623H27.4858V170.664H30.2078V175.623ZM33.5015 175.623H30.7795V170.664H33.5015V175.623ZM36.7952 175.623H34.0732V170.664H36.7952V175.623ZM40.0889 175.623H37.3669V170.664H40.0889V175.623Z" fill="#FFB4B4"/>
<path opacity="0.1" d="M14.9574 186.824C15.0425 186.936 15.1241 187.061 15.2126 187.173H17.0126V189.555C17.2065 189.792 17.3971 190.029 17.5944 190.252V187.159H20.3165V192.136H19.214C19.3229 192.251 19.4284 192.373 19.5543 192.484H40.2523V186.824H14.9574ZM23.6034 192.136H20.8813V187.18H23.6034V192.136ZM26.9005 192.136H24.1784V187.18H26.9005V192.136ZM30.1976 192.136H27.4755V187.18H30.1976V192.136ZM33.4913 192.136H30.7692V187.18H33.4913V192.136ZM36.785 192.136H34.0629V187.18H36.785V192.136ZM40.0787 192.136H37.3567V187.18H40.0787V192.136Z" fill="#FFB4B4"/>
<path opacity="0.1" d="M33.1238 203.337C33.4335 203.518 33.7499 203.685 34.0698 203.867V203.692H36.7918V205.262L37.3703 205.537V203.692H40.0924V206.709C40.1446 206.736 40.1993 206.757 40.2557 206.772V203.337H33.1238Z" fill="#FFB4B4"/>
<path opacity="0.1" d="M257.719 116.652H257.739H257.719ZM236.759 219.578H237.099H236.759ZM214.89 167.208C214.955 167.431 215.009 167.654 215.071 167.874C215.016 167.654 214.958 167.431 214.89 167.208ZM257.719 116.641H257.739H257.719ZM52.2022 64.4216V65.9107H67.4016V64.4216H52.2022ZM236.759 219.578H237.099H236.759ZM214.89 167.208C214.955 167.431 215.009 167.654 215.071 167.874C215.016 167.654 214.958 167.431 214.89 167.208ZM257.719 116.641H257.739H257.719ZM236.759 219.567H237.099H236.759ZM214.89 167.208C214.955 167.431 215.009 167.654 215.071 167.874C215.016 167.654 214.958 167.431 214.89 167.208Z" fill="#FFB4B4"/>
<path d="M158.064 132.606C158.064 132.606 156.723 132.415 156.723 130.413C156.723 128.411 155.763 124.673 155.763 124.673C155.763 124.655 154.933 118.162 153.787 117.129C152.64 116.097 151.167 110.036 151.167 110.036C151.167 110.036 150.915 106.748 150.401 106.04C149.887 105.332 149.193 103.599 148.169 101.126C147.145 98.6535 142.874 96.9412 142.874 96.9412C142.874 96.9412 135.154 92.3519 132.966 90.8558C132.767 90.7329 132.581 90.5891 132.411 90.4269C132.03 89.9142 130.37 89.9038 130.37 89.9038C130.196 88.7808 130.03 87.4905 129.975 86.3222C129.975 86.1967 129.975 86.0712 129.958 85.9456C132.398 84.4676 134.235 82.1373 135.134 79.3824C135.174 79.2499 135.208 79.1104 135.246 78.9779C135.392 78.9285 135.527 78.8485 135.641 78.7428C135.755 78.6371 135.847 78.5081 135.909 78.3641C136.107 77.9142 136.11 77.3877 136.355 76.9692C136.641 76.474 137.185 76.2089 137.614 75.8358C138.696 74.8942 138.975 73.3075 138.924 71.8637C138.89 70.6954 138.706 69.5167 138.778 68.3554L138.798 68.0625C138.819 67.8881 138.842 67.7137 138.873 67.5464C139.04 66.6815 139.404 65.8655 139.608 65.0076C139.812 64.1497 139.833 63.1837 139.356 62.4444C138.659 61.3598 137.206 61.1436 135.93 61.032C134.484 60.9064 133.191 61.0703 132.265 59.8393C131.832 59.1959 131.345 58.5926 130.809 58.0364C130.618 57.855 128.767 56.6972 128.767 56.6205C126.961 55.7629 124.913 55.602 123 56.1671C122.04 56.4531 121.135 56.9204 120.162 57.1541C118.063 57.6632 115.647 57.1122 113.864 58.3432C112.87 59.0407 112.275 60.1497 111.717 61.2308C111.263 62.1212 110.803 63.0105 110.335 63.8986C109.583 65.3598 108.818 66.8454 108.501 68.4635C108.435 68.8156 108.394 69.1723 108.379 69.5307V69.5481C108.379 69.6771 108.379 69.8062 108.379 69.9352V70.0991C108.379 70.2211 108.379 70.3397 108.399 70.4478C108.42 70.5559 108.416 70.5908 108.427 70.664C108.437 70.7373 108.454 70.9012 108.474 71.0128C108.495 71.1244 108.535 71.3197 108.576 71.4731C108.593 71.5394 108.617 71.6021 108.638 71.6649C108.672 71.7835 108.712 71.8986 108.757 72.0136C108.78 72.0729 108.804 72.1357 108.832 72.195C108.883 72.317 108.944 72.4356 109.005 72.5437C109.032 72.5925 109.053 72.6379 109.08 72.6832C109.175 72.8454 109.279 73.0015 109.393 73.1505C110.121 74.0816 111.193 74.6745 111.986 75.5463C111.986 75.5812 111.986 75.6161 111.986 75.6475C111.986 75.7451 111.986 75.8393 111.986 75.9369C112.028 77.8813 112.533 79.7857 113.457 81.4845C114.381 83.1832 115.695 84.6249 117.287 85.6841C117.287 85.8166 117.304 85.9526 117.311 86.0851C117.377 87.1203 117.365 88.1592 117.273 89.1923C117.135 89.0251 116.961 88.8919 116.766 88.8025C116.57 88.7132 116.358 88.67 116.144 88.6762C115.997 88.6689 115.851 88.6818 115.708 88.7146L115.678 88.6901V88.7215C114.929 88.9099 114.007 89.7085 113.126 91.9787C113.126 91.9787 110.444 95.0755 108.403 94.9465C106.361 94.8174 101.193 98.1688 101.193 98.1688C101.193 98.1688 96.1501 101.524 95.068 104.941C94.4632 106.879 93.7381 108.775 92.8972 110.619L86.6636 123.783L85.5135 134.228C85.5135 134.228 86.1498 138.873 86.0239 139.581C85.898 140.289 88.6405 146.674 88.6405 146.674C88.6405 146.674 97.7016 162.992 101.404 163.829L101.669 163.637C101.827 163.722 101.995 163.786 102.169 163.829L102.931 163.278C102.977 163.892 102.958 164.509 102.874 165.119C102.363 166.73 103.064 177.244 103.956 179.305C104.847 181.366 104.531 208.39 104.531 208.39L104.405 210.775C104.405 210.775 104.405 210.852 104.435 210.984L104.405 211.549L104.497 211.598C104.592 212.355 104.561 213.123 104.405 213.869C104.085 214.915 103.956 217.872 103.956 217.872C103.956 217.872 101.407 234.569 102.615 237.924C103.823 241.279 104.85 244.955 104.85 244.955C104.85 244.955 106.126 249.14 104.912 249.854C103.697 250.569 100.243 251.769 100.955 253.513C101.601 255.124 104.054 259.441 104.418 260.072L104.388 260.404L103.888 265.959C103.969 266.693 104.163 267.408 104.463 268.079C105.01 269.289 106.075 270.545 108.1 270.409C108.44 270.385 108.835 270.343 109.216 270.29C112.921 269.781 117.484 268.086 117.484 268.086C117.247 267.932 117.03 267.748 116.838 267.539C116.656 267.358 116.511 267.141 116.414 266.901C116.316 266.661 116.267 266.404 116.27 266.144C116.324 265.133 114.476 260.313 114.017 259.127C113.946 258.956 113.908 258.859 113.908 258.859C113.908 258.859 118.121 254.346 117.42 250.346C117.42 250.346 112.758 247.556 114.293 246.025C115.827 244.494 118.57 240.097 118.57 240.097C118.57 240.097 118.696 223.654 118.57 221.199C118.438 219.495 118.517 217.781 118.805 216.097C118.856 215.842 118.917 215.595 118.981 215.351C121.104 215.675 123.246 215.842 125.392 215.849C126.175 215.849 126.971 215.849 127.774 215.801C127.774 216.033 127.784 216.284 127.804 216.554C127.981 220.627 128.311 227.769 128.58 230.423C128.961 234.228 131.067 244.48 131.067 244.48C131.067 244.48 127.049 247.124 131.768 253.638C131.768 253.638 131.768 255.999 131.455 256.341C131.121 257.458 130.852 258.595 130.649 259.745C130.452 260.972 130.37 262.214 130.69 262.859C131.455 264.4 136.049 264.275 136.049 264.275L136.161 264.254C137.028 264.162 137.905 264.247 138.739 264.505C139.574 264.763 140.35 265.189 141.023 265.757C142.769 267.194 149.394 266.562 152.98 266.106C154.385 265.924 155.325 265.757 155.325 265.757C155.37 265.594 155.386 265.424 155.372 265.255C155.335 264.351 154.644 262.371 149.962 260.603C149.962 260.603 145.559 257.569 145.62 254.925H145.528H145.018C145.389 254.904 145.627 254.925 145.627 254.925C145.627 254.925 143.902 248.473 144.606 247.95C145.311 247.427 143.201 240.278 143.201 240.278C143.201 240.278 141.993 228.282 141.929 227.441C141.931 226.72 142.038 226.003 142.245 225.314L141.929 218.737C141.929 218.737 141.867 216.55 141.929 215.839C141.918 215.221 141.869 214.605 141.782 213.994C141.752 213.75 141.721 213.495 141.687 213.244C143.337 212.815 144.409 212.418 144.409 212.418L144.218 189.523C145.62 186.733 145.879 180.613 145.872 176.271C145.872 173.482 145.75 171.417 145.75 171.417L147.665 168.212C147.665 168.212 148.108 164.376 147.407 163.536C147.097 163.156 147.237 162.761 147.492 162.437C147.624 162.329 147.764 162.231 147.91 162.144C147.91 162.144 147.89 162.113 147.866 162.067C148 161.953 148.142 161.849 148.291 161.757C148.291 161.757 147.611 160.676 148.22 160.219C148.792 160.617 149.302 160.917 149.69 161.161C149.663 161.415 149.635 161.562 149.635 161.562L149.799 161.213C150.173 161.429 150.401 161.562 150.401 161.562C150.401 161.562 153.402 155.435 153.337 154.531C153.273 153.628 155.379 149.823 155.379 149.823C155.379 149.823 155.634 147.825 156.784 146.988C157.934 146.151 157.676 140.087 157.676 140.087C157.676 140.087 157.996 136.927 158.761 135.637C159.527 134.347 158.064 132.606 158.064 132.606ZM100.641 129.918L100.699 131.379C100.359 130.817 100.114 130.413 100.114 130.413L100.641 129.918Z" fill="url(#paint0_linear)"/>
<path d="M150.564 158.915L149.829 162.124C149.829 162.124 143.943 159.044 142.881 155.131C141.82 151.219 144.657 149.733 144.657 149.733L150.142 152.115L150.564 158.915Z" fill="white"/>
<path opacity="0.1" d="M150.564 158.915L149.829 162.124C149.829 162.124 143.943 159.044 142.881 155.131C141.82 151.219 144.657 149.733 144.657 149.733L150.142 152.115L150.564 158.915Z" fill="black"/>
<path d="M117.529 268.108C117.529 268.108 112.084 270.158 108.342 270.416C106.354 270.552 105.31 269.304 104.772 268.101C104.479 267.432 104.289 266.72 104.211 265.991L104.697 260.463L104.956 257.52L112.908 255.403L114.034 258.932L114.14 259.201C114.592 260.379 116.406 265.175 116.351 266.176C116.349 266.432 116.397 266.686 116.493 266.923C116.589 267.159 116.731 267.374 116.909 267.553C117.092 267.764 117.3 267.95 117.529 268.108Z" fill="white"/>
<path d="M154.715 265.297C154.729 265.464 154.713 265.633 154.668 265.795C154.668 265.795 143.024 267.787 140.642 265.795C139.971 265.214 139.188 264.782 138.344 264.529C137.5 264.275 136.614 264.205 135.743 264.324C135.743 264.324 131.238 264.449 130.486 262.929C130.173 262.29 130.254 261.052 130.448 259.832C130.646 258.688 130.91 257.557 131.238 256.446L131.418 256.299L132.49 255.417L145.038 255.037H145.134C145.073 257.666 149.394 260.683 149.394 260.683C153.984 262.426 154.661 264.397 154.715 265.297Z" fill="white"/>
<path opacity="0.1" d="M154.715 265.296C154.727 265.465 154.71 265.633 154.664 265.795C154.664 265.795 143.024 267.786 140.642 265.795C139.971 265.214 139.189 264.783 138.346 264.529C137.503 264.276 136.617 264.206 135.746 264.324C135.746 264.324 131.238 264.449 130.489 262.929C130.176 262.287 130.254 261.052 130.448 259.832C132.184 260.01 134.923 260.453 135.998 261.509C137.624 263.117 140.38 264.721 142.071 264.847C143.395 264.934 151.313 265.192 154.715 265.296Z" fill="black"/>
<path opacity="0.1" d="M117.529 268.107C117.529 268.107 112.084 270.158 108.342 270.416C106.354 270.552 105.31 269.303 104.776 268.097C106.16 268.574 108.083 269.077 109.094 268.616C110.291 268.072 114.538 267.72 116.92 267.57C117.101 267.774 117.305 267.954 117.529 268.107Z" fill="black"/>
<path d="M125.606 102.859C121.115 101.07 115.337 95.1592 116.78 92.3973C117.1 91.7003 117.291 90.948 117.341 90.1793C117.434 89.1358 117.448 88.0864 117.382 87.0407C117.281 85.3281 117.08 83.6232 116.78 81.9352C116.78 81.9352 130.802 82.2595 129.985 84.3763C129.747 84.9971 129.71 86.0747 129.774 87.2813C129.839 88.4879 130.009 89.8515 130.186 91.0058C130.431 92.5891 130.676 93.7957 130.676 93.7957C130.676 93.7957 129.819 95.0267 129.315 95.093C128.812 95.1593 132.051 105.409 125.606 102.859Z" fill="#CF6F80"/>
<path opacity="0.1" d="M114.129 259.201L114.024 259.319C109.832 254.123 104.762 260.599 104.762 260.599L104.687 260.463L104.946 257.52L112.898 255.403L114.024 258.932L114.129 259.201Z" fill="black"/>
<path opacity="0.1" d="M145.137 255.403C145.137 255.403 142.075 255.336 140.442 256.815C138.808 258.294 130.914 257.136 131.255 256.815C131.355 256.656 131.416 256.474 131.432 256.285L132.503 255.403L145.052 255.023C145.1 255.256 145.137 255.403 145.137 255.403Z" fill="black"/>
<path d="M119.346 214.598C119.117 215.175 118.944 215.775 118.828 216.387C118.545 218.063 118.466 219.768 118.594 221.464C118.719 223.905 118.594 240.264 118.594 240.264C118.594 240.264 115.902 244.627 114.402 246.165C112.901 247.703 117.464 250.465 117.464 250.465C118.144 254.44 114.02 258.932 114.02 258.932C109.829 253.736 104.759 260.215 104.759 260.215C104.759 260.215 102.003 255.333 101.315 253.59C100.628 251.846 104.007 250.639 105.194 249.931C106.382 249.223 105.136 245.049 105.136 245.049C105.136 245.049 104.133 241.391 102.942 238.053C101.751 234.716 104.255 218.102 104.255 218.102C104.255 218.102 104.384 215.152 104.694 214.123C104.85 213.381 104.881 212.617 104.786 211.864C104.765 211.609 104.742 211.396 104.725 211.253C104.708 211.11 104.694 211.044 104.694 211.044L104.742 210.96L106.443 207.71C106.443 207.71 120.162 212.551 119.346 214.598Z" fill="#FFB4B4"/>
<path d="M145.137 255.02C145.137 255.02 142.075 254.953 140.442 256.414C138.808 257.876 130.914 256.735 131.255 256.414C131.595 256.094 131.568 253.719 131.568 253.719C126.937 247.239 130.887 244.61 130.887 244.61C130.887 244.61 128.818 234.409 128.444 230.625C128.182 227.982 127.859 220.878 127.685 216.822C127.61 215.079 127.566 213.879 127.566 213.879L131.35 213.098L131.836 212.997L140.962 211.121C140.962 211.121 141.214 212.864 141.384 214.291C141.469 214.9 141.517 215.513 141.527 216.128C141.466 216.826 141.527 219.009 141.527 219.009L141.837 225.555C141.634 226.241 141.53 226.954 141.527 227.672C141.588 228.505 142.776 240.439 142.776 240.439C142.776 240.439 144.841 247.56 144.137 248.073C143.433 248.585 145.137 255.02 145.137 255.02Z" fill="#FFB4B4"/>
<path opacity="0.1" d="M129.985 84.3763C129.747 84.9971 129.71 86.0747 129.774 87.2813C127.896 88.4405 125.737 89.0332 123.545 88.9912C121.353 88.9493 119.217 88.2744 117.382 87.0441C117.281 85.3304 117.08 83.6243 116.78 81.9352C116.78 81.9352 130.802 82.2525 129.985 84.3763Z" fill="black"/>
<path d="M135.406 76.6692C135.408 77.9258 135.216 79.1749 134.834 80.3693C133.982 83.0453 132.234 85.3263 129.899 86.8092C127.564 88.2921 124.793 88.8813 122.076 88.4727C119.358 88.0642 116.869 86.6841 115.048 84.5765C113.227 82.4689 112.192 79.7694 112.125 76.9551C112.125 76.8575 112.125 76.7668 112.125 76.6692C112.099 75.0851 112.38 73.5115 112.954 72.0401C113.527 70.5687 114.38 69.229 115.464 68.0992C116.547 66.9694 117.84 66.0721 119.265 65.4595C120.691 64.847 122.221 64.5315 123.767 64.5315C125.313 64.5315 126.843 64.847 128.269 65.4595C129.695 66.0721 130.987 66.9694 132.071 68.0992C133.154 69.229 134.008 70.5687 134.581 72.0401C135.154 73.5115 135.436 75.0851 135.409 76.6692H135.406Z" fill="#CF6F80"/>
<path opacity="0.1" d="M125.606 102.859C121.115 101.07 115.337 95.1592 116.78 92.3973C117.1 91.7003 117.291 90.948 117.341 90.1793L123.49 95.358L127.294 98.5559L130.186 91.0093C130.431 92.5925 130.676 93.7992 130.676 93.7992C130.676 93.7992 129.819 95.0302 129.315 95.0964C128.812 95.1627 132.051 105.408 125.606 102.859Z" fill="black"/>
<path d="M141.507 125.747L136.372 214.151L129.676 214.601L112.336 163.34L115.181 102.483L115.78 89.6248L123.49 96.1147L127.297 99.3126L130.275 91.5463L135.811 96.4913L141.507 125.747Z" fill="#FFB4B4"/>
<path opacity="0.1" d="M119.346 214.597C119.117 215.175 118.944 215.774 118.828 216.386C113.956 215.615 109.224 214.1 104.789 211.891L104.697 211.843L104.728 211.281L104.745 210.988L106.446 207.738C106.446 207.738 120.162 212.55 119.346 214.597Z" fill="black"/>
<path opacity="0.1" d="M131.428 216.4C130.183 216.618 128.926 216.764 127.665 216.84C127.59 215.096 127.546 213.897 127.546 213.897L131.329 213.115L131.428 216.4Z" fill="black"/>
<path opacity="0.1" d="M141.364 214.308C138.944 214.953 135.208 215.678 131.864 215.225L131.816 213.014L140.942 211.138C140.942 211.138 141.194 212.864 141.364 214.308Z" fill="black"/>
<path opacity="0.1" d="M131.802 215.63C117.852 218.071 105.075 211.072 105.075 211.072L105.198 208.7C105.198 208.7 105.514 181.816 104.636 179.755C103.758 177.694 103.074 167.243 103.571 165.638C104.068 164.034 101.758 139.978 101.758 139.978L101.383 130.214L87.6844 124.526L93.8091 111.441C94.6364 109.607 95.3478 107.72 95.9391 105.792C97.0041 102.395 101.948 99.0578 101.948 99.0578C101.948 99.0578 107.018 95.7239 109.022 95.8495C111.026 95.975 113.653 92.8992 113.653 92.8992C115.592 87.832 117.348 90.1267 117.348 90.1267C117.348 90.3673 117.348 90.1267 117.253 90.8765C116.572 96.4388 128.257 114.015 128.424 114.325L129.536 142.106L130.663 177.262L131.802 215.63Z" fill="black"/>
<path d="M131.428 215.63C117.477 218.071 104.697 211.072 104.697 211.072L104.823 208.7C104.823 208.7 105.14 181.816 104.258 179.755C103.377 177.694 102.697 167.243 103.197 165.639C103.697 164.034 101.383 139.979 101.383 139.979L101.006 130.214L87.2999 124.505L93.4246 111.421C94.25 109.585 94.9615 107.699 95.5546 105.771C96.6162 102.375 101.564 99.0372 101.564 99.0372C101.564 99.0372 106.633 95.7033 108.634 95.8288C110.635 95.9544 113.265 92.8785 113.265 92.8785C115.208 87.8114 117.348 90.1061 117.348 90.1061C117.348 90.3467 117.144 90.4548 117.253 90.8559C118.75 96.2508 127.883 113.994 128.049 114.305L129.176 142.085L130.302 177.241L131.428 215.63Z" fill="white"/>
<path opacity="0.1" d="M127.668 115.097C126.168 114.455 118.219 105.154 118.219 105.154V103.037C117.93 102.34 116.212 102.765 114.817 103.253L115.416 90.3955L116.096 90.9744C117.586 96.3659 127.495 114.786 127.668 115.097Z" fill="black"/>
<path d="M128.046 114.326C126.542 113.684 118.594 104.383 118.594 104.383V102.266C118.304 101.569 116.586 101.994 115.191 102.483L115.793 89.6248L116.474 90.2037C117.967 95.5951 127.879 114.019 128.046 114.326Z" fill="white"/>
<path opacity="0.1" d="M105.075 160.711C105.262 160.711 114.776 159.686 114.776 159.686C114.776 159.686 120.536 171.295 120.159 174.12C119.781 176.945 119.097 179.445 116.78 179.002C114.463 178.559 104.309 179.351 104.309 179.351L105.075 160.711Z" fill="black"/>
<path d="M104.697 159.94C104.885 159.94 114.398 158.915 114.398 158.915C114.398 158.915 120.155 170.528 119.781 173.349C119.407 176.171 118.716 178.674 116.402 178.232C114.089 177.789 103.932 178.58 103.932 178.58L104.697 159.94Z" fill="white"/>
<path d="M111.867 154.489C111.867 154.489 120.598 159.299 120.785 160.767C120.972 162.235 116.341 160.125 115.341 159.87C114.682 159.708 114.012 159.601 113.337 159.55L106.664 159.734L111.867 154.489Z" fill="#CF6F80"/>
<path opacity="0.1" d="M125.232 115.696C125.739 115.696 126.151 115.275 126.151 114.755C126.151 114.235 125.739 113.813 125.232 113.813C124.725 113.813 124.313 114.235 124.313 114.755C124.313 115.275 124.725 115.696 125.232 115.696Z" fill="black"/>
<path d="M125.232 115.312C125.739 115.312 126.151 114.891 126.151 114.371C126.151 113.851 125.739 113.43 125.232 113.43C124.725 113.43 124.313 113.851 124.313 114.371C124.313 114.891 124.725 115.312 125.232 115.312Z" fill="#3F3D56"/>
<path opacity="0.1" d="M126.923 156.457C127.43 156.457 127.842 156.035 127.842 155.515C127.842 154.995 127.43 154.573 126.923 154.573C126.416 154.573 126.004 154.995 126.004 155.515C126.004 156.035 126.416 156.457 126.923 156.457Z" fill="black"/>
<path d="M126.923 156.069C127.43 156.069 127.842 155.648 127.842 155.128C127.842 154.608 127.43 154.186 126.923 154.186C126.416 154.186 126.004 154.608 126.004 155.128C126.004 155.648 126.416 156.069 126.923 156.069Z" fill="#3F3D56"/>
<path opacity="0.1" d="M126.147 136.076C126.655 136.076 127.066 135.655 127.066 135.135C127.066 134.615 126.655 134.193 126.147 134.193C125.64 134.193 125.229 134.615 125.229 135.135C125.229 135.655 125.64 136.076 126.147 136.076Z" fill="black"/>
<path d="M126.147 135.693C126.655 135.693 127.066 135.271 127.066 134.751C127.066 134.231 126.655 133.81 126.147 133.81C125.64 133.81 125.229 134.231 125.229 134.751C125.229 135.271 125.64 135.693 126.147 135.693Z" fill="#3F3D56"/>
<path d="M147.325 159.354C147.325 159.354 147.951 160.317 147.325 160.767C146.699 161.217 147.386 162.305 147.386 162.305C147.386 162.305 145.824 163.243 146.512 164.087C147.199 164.931 146.764 168.742 146.764 168.742L144.885 171.93C144.885 171.93 144.998 173.984 145.004 176.76C145.004 181.091 144.756 187.18 143.381 189.956L143.572 212.732C143.572 212.732 136.995 215.194 131.489 214.444L130.673 177.896C130.673 177.896 131.864 157.171 132.303 153.196C132.559 151.132 132.664 149.051 132.616 146.971C132.616 146.971 132.429 140.749 131.799 137.862C131.799 137.862 131.119 125.353 131.05 121.89C131.02 120.233 131.105 115.4 131.2 110.803C131.306 105.778 131.425 101.039 131.425 101.039L130.183 90.9675C130.183 90.9675 131.425 90.8384 131.799 91.3511C131.967 91.5116 132.149 91.6552 132.343 91.78C134.487 93.2656 142.061 97.8341 142.061 97.8341C142.061 97.8341 146.253 99.5429 147.257 101.991C148.261 104.439 148.958 106.176 149.445 106.873C149.931 107.571 150.197 110.849 150.197 110.849C150.197 110.849 151.64 116.882 152.766 117.904C153.892 118.926 154.715 125.426 154.715 125.426L144.763 133.447C144.763 133.447 143.888 146.789 143.701 147.306C143.514 147.822 147.325 159.354 147.325 159.354Z" fill="white"/>
<path d="M147.703 159.354C147.703 159.354 148.325 160.317 147.703 160.767C147.08 161.216 147.761 162.304 147.761 162.304C147.761 162.304 146.209 163.253 146.89 164.097C147.57 164.941 147.141 168.753 147.141 168.753L145.263 171.94C145.263 171.94 145.375 173.994 145.386 176.77C145.386 181.101 145.137 187.19 143.763 189.966L143.95 212.742C143.95 212.742 137.362 215.204 131.864 214.454L131.05 177.907C131.05 177.907 132.241 157.182 132.68 153.206C132.937 151.142 133.041 149.061 132.99 146.981C132.99 146.981 132.803 140.76 132.177 137.872C132.177 137.872 131.496 125.363 131.425 121.9C131.394 120.244 131.483 115.41 131.574 110.814C131.68 105.788 131.799 101.049 131.799 101.049L130.159 90.8417C130.159 90.8417 131.799 90.8417 132.177 91.3613C132.343 91.5237 132.525 91.6675 132.721 91.7902C134.865 93.2758 142.442 97.8443 142.442 97.8443C142.442 97.8443 146.631 99.5531 147.635 102.001C148.638 104.449 149.336 106.186 149.826 106.883C150.316 107.581 150.575 110.859 150.575 110.859C150.575 110.859 152.017 116.892 153.144 117.914C154.27 118.936 155.083 125.422 155.083 125.422L145.13 133.443C145.13 133.443 144.256 146.786 144.065 147.302C143.875 147.818 147.703 159.354 147.703 159.354Z" fill="white"/>
<path opacity="0.1" d="M135.783 104.01L136.682 106.695L131.952 111.578C132.058 106.556 132.177 101.813 132.177 101.813L130.537 91.6056C130.537 91.6056 132.177 91.6056 132.554 92.1252C132.72 92.2872 132.903 92.4299 133.099 92.5507L137.121 104.443L135.783 104.01Z" fill="black"/>
<path d="M135.406 103.239L136.307 105.925L131.578 110.807C131.683 105.782 131.802 101.042 131.802 101.042L130.159 90.8348C130.159 90.8348 131.802 90.8348 132.177 91.3545C132.344 91.5159 132.526 91.6596 132.721 91.7834L136.746 103.672L135.406 103.239Z" fill="white"/>
<path opacity="0.1" d="M135.406 76.6691C135.408 77.9258 135.216 79.1749 134.834 80.3692C134.77 80.3795 134.704 80.3765 134.641 80.3603C134.578 80.3441 134.519 80.3151 134.467 80.275C134.378 77.1364 132.871 74.1897 131.016 71.6823C130.496 70.9252 129.865 70.2548 129.145 69.6945C128.418 69.1345 127.513 68.8721 126.607 68.9586C125.586 69.1016 124.684 69.813 123.653 69.9037C122.292 70.0188 121.074 69.0528 119.723 69.004C119.174 69.0093 118.632 69.1347 118.134 69.3716C117.636 69.6085 117.193 69.9516 116.834 70.378C116.125 71.2384 115.598 72.2408 115.286 73.3213C114.751 74.9598 114.46 76.6715 114.422 78.3989C114.405 79.3753 114.313 80.5994 113.428 80.9551C113.495 80.237 113.415 79.5125 113.195 78.8275C112.974 78.1426 112.617 77.5121 112.146 76.976L112.125 76.9551C112.125 76.8575 112.125 76.7668 112.125 76.6691C112.099 75.0851 112.38 73.5114 112.954 72.0401C113.527 70.5687 114.38 69.229 115.464 68.0992C116.547 66.9694 117.84 66.072 119.265 65.4595C120.691 64.847 122.221 64.5315 123.767 64.5315C125.313 64.5315 126.843 64.847 128.269 65.4595C129.695 66.072 130.987 66.9694 132.071 68.0992C133.154 69.229 134.008 70.5687 134.581 72.0401C135.154 73.5114 135.436 75.0851 135.409 76.6691H135.406Z" fill="black"/>
<path d="M128.587 57.7226C126.819 56.8702 124.808 56.709 122.932 57.2693C121.989 57.5552 121.101 58.0191 120.145 58.2527C118.104 58.7584 115.722 58.2109 113.969 59.4349C112.996 60.1324 112.411 61.2344 111.867 62.305L110.506 64.9624C109.764 66.4166 109.015 67.8952 108.706 69.4959C108.396 71.0966 108.583 72.8891 109.573 74.1759C110.295 75.114 111.36 75.7034 112.142 76.5857C112.611 77.1224 112.967 77.7525 113.187 78.4366C113.407 79.1207 113.487 79.844 113.422 80.5613C114.31 80.2125 114.395 78.985 114.415 78.0085C114.453 76.2812 114.744 74.5695 115.279 72.931C115.59 71.8501 116.117 70.8476 116.828 69.9876C117.186 69.5616 117.63 69.2188 118.128 68.9818C118.626 68.7449 119.167 68.6194 119.716 68.6136C121.077 68.6625 122.299 69.625 123.646 69.5099C124.667 69.4227 125.572 68.7078 126.6 68.5683C127.506 68.4804 128.411 68.7429 129.138 69.3041C129.858 69.8636 130.488 70.5342 131.006 71.2919C132.864 73.7993 134.371 76.7391 134.46 79.8847C134.844 80.1742 135.399 79.7976 135.59 79.3512C135.78 78.9048 135.787 78.3817 136.028 77.9562C136.307 77.4645 136.842 77.203 137.26 76.8333C138.322 75.8952 138.587 74.3154 138.546 72.8821C138.506 71.4488 138.233 69.9946 138.499 68.5857C138.659 67.7209 139.019 66.9118 139.217 66.0574C139.414 65.203 139.438 64.244 138.972 63.5082C138.291 62.4271 136.859 62.2143 135.61 62.1132C134.191 61.9877 132.922 62.1481 132.017 60.924C131.592 60.2853 131.114 59.6855 130.588 59.1315C130.407 58.9502 128.587 57.7994 128.587 57.7226Z" fill="#512E4E"/>
<path opacity="0.1" d="M91.6042 131.264L88.0485 124.526L86.9222 134.922C86.9222 134.922 87.5483 139.539 87.4224 140.247C87.2965 140.955 89.988 147.302 89.988 147.302C89.988 147.302 98.879 163.533 102.51 164.37L114.776 155.386L111.523 151.152C111.523 151.152 110.397 150.703 110.114 151.152C110.114 151.152 104.075 140.502 103.449 139.731C102.823 138.961 102.945 137.423 102.945 137.423C102.945 137.423 102.006 136.397 102.319 135.435C102.632 134.472 100.505 131.135 100.505 131.135L102.445 129.276L91.6042 131.264Z" fill="black"/>
<path d="M88.2357 123.759L87.2965 124.526L86.1703 134.922C86.1703 134.922 86.7964 139.539 86.6705 140.247C86.5446 140.955 89.2394 147.302 89.2394 147.302C89.2394 147.302 98.127 163.532 101.758 164.369L114.027 155.386L110.771 151.152C110.771 151.152 109.645 150.702 109.362 151.152C109.362 151.152 103.323 140.502 102.697 139.731C102.071 138.96 102.197 137.422 102.197 137.422C102.197 137.422 101.257 136.397 101.57 135.434C101.883 134.472 99.7535 131.134 99.7535 131.134L101.693 129.276L88.2357 123.759Z" fill="white"/>
<path opacity="0.1" d="M146.512 164.484C147.192 165.332 146.764 169.136 146.764 169.136L144.885 172.324C144.885 172.324 144.998 174.381 145.004 177.154L141.847 178.165C141.562 178.257 141.259 178.277 140.965 178.224C140.67 178.171 140.392 178.047 140.154 177.861C139.916 177.676 139.725 177.435 139.596 177.158C139.467 176.882 139.405 176.578 139.414 176.272L139.958 158.273L147.325 161.161C146.699 161.607 147.386 162.702 147.386 162.702C147.386 162.702 145.825 163.637 146.512 164.484Z" fill="black"/>
<path d="M146.89 164.097C147.57 164.945 147.141 168.753 147.141 168.753L145.263 171.94C145.263 171.94 145.375 173.994 145.386 176.77L142.17 177.799C141.891 177.888 141.594 177.907 141.306 177.855C141.018 177.803 140.746 177.681 140.513 177.5C140.28 177.318 140.093 177.083 139.967 176.812C139.841 176.541 139.779 176.243 139.788 175.944L140.336 157.89L147.706 160.777C147.077 161.224 147.764 162.315 147.764 162.315C147.764 162.315 146.209 163.253 146.89 164.097Z" fill="white"/>
<path d="M149.329 155.519C149.329 155.519 148.829 158.793 147.577 158.985C146.325 159.177 145.763 164.282 144.515 164.101C143.266 163.919 144.093 159.355 144.137 158.469C144.181 157.583 142.776 153.914 143.827 153.081C144.879 152.247 148.206 153.081 148.206 153.081L149.329 155.519Z" fill="#CF6F80"/>
<path opacity="0.1" d="M151.993 130.302L154.355 125.419C154.355 125.419 155.294 129.14 155.294 131.128C155.294 133.116 156.607 133.311 156.607 133.311C156.607 133.311 158.047 135.055 157.288 136.324C156.529 137.594 156.223 140.753 156.223 140.753C156.223 140.753 156.471 146.783 155.345 147.616C154.219 148.45 153.984 150.441 153.984 150.441C153.984 150.441 151.915 154.225 151.98 155.124C152.044 156.024 149.101 162.116 149.101 162.116C149.101 162.116 150.541 154.545 142.153 151.274C142.153 151.274 142.088 148.704 142.715 148C143.341 147.295 144.317 146.974 143.705 143.414C143.092 139.853 143.528 135.599 143.528 134.744C143.528 133.89 145.406 128.561 145.406 128.561L151.993 130.302Z" fill="black"/>
<path d="M153.014 124.721L155.076 125.419C155.076 125.419 156.019 129.14 156.019 131.128C156.019 133.115 157.332 133.311 157.332 133.311C157.332 133.311 158.771 135.054 158.013 136.324C157.254 137.593 156.951 140.753 156.951 140.753C156.951 140.753 157.199 146.782 156.073 147.616C154.947 148.449 154.695 150.441 154.695 150.441C154.695 150.441 152.63 154.224 152.694 155.124C152.759 156.024 149.812 162.116 149.812 162.116C149.812 162.116 151.255 154.545 142.864 151.274C142.864 151.274 142.803 148.704 143.429 148C144.055 147.295 145.032 146.974 144.419 143.414C143.807 139.853 144.242 135.598 144.242 134.744C144.242 133.89 146.121 128.561 146.121 128.561L153.014 124.721Z" fill="white"/>
<path opacity="0.1" d="M107.47 251.267C107.47 251.267 110.757 249.15 112.915 250.688C115.072 252.226 107.47 251.267 107.47 251.267Z" fill="black"/>
<path opacity="0.1" d="M133.01 244.721C133.01 244.721 135.92 244.338 138.363 247.034C140.806 249.729 133.01 244.721 133.01 244.721Z" fill="black"/>
<g opacity="0.1">
<path opacity="0.1" d="M137.267 76.0694C136.848 76.4391 136.311 76.7041 136.032 77.1958C135.794 77.6178 135.787 78.1374 135.596 78.5908C135.406 79.0442 134.851 79.4138 134.467 79.1279C134.378 75.9892 132.867 73.0423 131.013 70.5314C130.495 69.7736 129.864 69.103 129.145 68.5436C128.417 67.9824 127.51 67.72 126.603 67.8077C125.582 67.9507 124.684 68.6621 123.653 68.7493C122.292 68.8679 121.071 67.9019 119.72 67.8531C119.171 67.8587 118.629 67.9845 118.132 68.222C117.634 68.4596 117.192 68.8035 116.834 69.2306C116.124 70.0893 115.597 71.0906 115.286 72.1705C114.752 73.8091 114.46 75.5208 114.422 77.2482C114.402 78.2211 114.313 79.4348 113.435 79.7974C113.456 80.0551 113.456 80.314 113.435 80.5717C114.32 80.2229 114.408 78.9953 114.429 78.0189C114.467 76.2915 114.758 74.5797 115.293 72.9412C115.604 71.8603 116.131 70.8578 116.841 69.9978C117.199 69.5719 117.642 69.229 118.139 68.9921C118.637 68.7552 119.178 68.6296 119.727 68.6238C121.088 68.6726 122.313 69.6351 123.66 69.52C124.681 69.4329 125.586 68.7179 126.61 68.5784C127.517 68.4907 128.424 68.7531 129.152 69.3143C129.871 69.8737 130.501 70.5443 131.02 71.3021C132.874 73.8096 134.385 76.7494 134.473 79.8951C134.858 80.1846 135.413 79.8079 135.603 79.3615C135.794 78.9151 135.8 78.392 136.039 77.9666C136.318 77.4748 136.855 77.2133 137.274 76.8436C138.335 75.9055 138.601 74.3257 138.56 72.8924C138.56 72.847 138.56 72.8017 138.56 72.7599C138.495 74.0014 138.172 75.2673 137.267 76.0694Z" fill="black"/>
<path opacity="0.1" d="M112.149 75.8216C111.366 74.9393 110.298 74.3499 109.58 73.4153C108.976 72.588 108.63 71.592 108.59 70.5592C108.483 71.8498 108.835 73.1367 109.58 74.1825C110.298 75.1206 111.366 75.71 112.149 76.5923C112.9 77.4553 113.352 78.5493 113.432 79.703C113.484 79.0009 113.397 78.2951 113.177 77.6282C112.956 76.9612 112.607 76.3468 112.149 75.8216Z" fill="black"/>
<path opacity="0.1" d="M139.223 65.2934C139.023 66.1478 138.665 66.9604 138.502 67.8217C138.405 68.3973 138.37 68.982 138.397 69.5654C138.408 69.2331 138.443 68.9021 138.502 68.575C138.665 67.7102 139.023 66.9011 139.223 66.0467C139.341 65.5754 139.378 65.0872 139.336 64.6029C139.315 64.8355 139.277 65.0663 139.223 65.2934Z" fill="black"/>
</g>
<path opacity="0.1" d="M46.1626 265.447C64.4735 265.447 79.3174 263.003 79.3174 259.989C79.3174 256.975 64.4735 254.531 46.1626 254.531C27.8517 254.531 13.0078 256.975 13.0078 259.989C13.0078 263.003 27.8517 265.447 46.1626 265.447Z" fill="#FFB4B4"/>
<path d="M47.231 155.438H45.0976V204.669H47.231V155.438Z" fill="#535461"/>
<path d="M60.6372 204.519L60.5045 206.737L60.314 209.876L60.2357 211.18L60.0486 214.319L59.9669 215.623L59.7764 218.762L57.6259 254.357C57.5324 255.888 56.8731 257.326 55.782 258.377C54.691 259.428 53.2502 260.013 51.753 260.013H40.5721C39.0753 260.013 37.6349 259.427 36.5444 258.377C35.4539 257.326 34.7953 255.888 34.7026 254.357L32.5624 218.737L32.3719 215.599L32.2936 214.294L32.1031 211.156L32.0248 209.851L31.8343 206.713L31.6982 204.495C31.6745 204.068 31.7362 203.641 31.8795 203.239C32.0228 202.837 32.2446 202.47 32.5314 202.16C32.8181 201.849 33.1638 201.602 33.5471 201.433C33.9304 201.264 34.3433 201.178 34.7605 201.178H57.6293C58.0449 201.182 58.4554 201.273 58.8354 201.445C59.2154 201.618 59.5568 201.869 59.8387 202.182C60.1205 202.495 60.3368 202.864 60.4741 203.266C60.6115 203.668 60.667 204.094 60.6372 204.519Z" fill="#3F3D56"/>
<path d="M60.5045 206.737L60.314 209.865H32.0112L31.8207 206.737H60.5045Z" fill="#9D9CB5"/>
<path d="M60.2357 211.17L60.0486 214.301H32.28L32.0895 211.17H60.2357Z" fill="#9D9CB5"/>
<path d="M59.9669 215.609L59.7798 218.737H32.5488L32.3583 215.609H59.9669Z" fill="#9D9CB5"/>
<path d="M28.5647 173.89C40.9876 183.103 46.1732 197.513 46.1732 197.513C46.1732 197.513 31.2018 196.986 18.7755 187.773C6.34923 178.559 1.17389 164.153 1.17389 164.153C1.17389 164.153 16.1385 164.676 28.5647 173.89Z" fill="#FFB4B4"/>
<path d="M1.16364 164.153C1.16364 164.153 16.7067 172.993 21.6915 180.313C26.6763 187.633 46.1731 197.513 46.1731 197.513" stroke="#535461" stroke-width="2" stroke-miterlimit="10"/>
<path d="M36.5843 155.33C43.3452 160.341 46.1728 168.185 46.1728 168.185C46.1728 168.185 38.0236 167.899 31.2592 162.887C24.4949 157.876 21.6741 150.029 21.6741 150.029C21.6741 150.029 29.8199 150.315 36.5843 155.33Z" fill="#FFB4B4"/>
<path d="M21.6741 150.029C21.6741 150.029 30.133 154.842 32.8448 158.824C35.5567 162.807 46.1728 168.185 46.1728 168.185" stroke="#535461" stroke-width="2" stroke-miterlimit="10"/>
<path d="M55.9893 167.787C48.2211 176.537 46.5777 187.972 46.5777 187.972C46.5777 187.972 57.5306 185.217 65.2919 176.463C73.0532 167.71 74.7035 156.279 74.7035 156.279C74.7035 156.279 63.7574 159.037 55.9893 167.787Z" fill="#FFB4B4"/>
<path d="M74.7103 156.282C74.7103 156.282 64.591 165.251 62.0187 171.431C59.4463 177.611 46.5777 187.972 46.5777 187.972" stroke="#535461" stroke-width="2" stroke-miterlimit="10"/>
<path d="M341.147 164.707C341.147 164.707 335.529 136.062 337.68 132.498C337.68 132.498 337.758 129.185 337.629 124.962C337.629 124.802 337.629 124.641 337.629 124.477C338.007 124.736 338.401 124.969 338.809 125.175C340.791 126.218 343.065 126.519 345.24 126.026L343.539 124.083C343.131 123.62 342.705 123.117 342.617 122.504C342.528 121.89 342.773 121.342 342.984 120.795C344.6 116.61 344.686 111.348 341.572 108.153C338.942 105.468 338.302 102.001 335.447 99.5499C333.362 97.7539 332.215 95.1209 331.133 92.5752C330.218 90.4235 329.296 88.2543 328.772 85.9736C328.363 84.1916 328.2 82.3468 327.639 80.6066C327.077 78.8664 326.026 77.175 324.382 76.3973C323.797 76.1218 323.147 75.9649 322.613 75.5987C321.912 75.114 321.49 74.3259 320.983 73.6354C318.407 70.148 309.782 72.2021 305.699 73.6179C304.589 73.9745 303.561 74.5582 302.677 75.3337L302.715 75.2709C302.745 75.2186 302.783 75.1663 302.817 75.114C302.37 75.4844 301.984 75.9259 301.673 76.4218C301.078 77.3878 300.83 78.5142 300.333 79.5604C299.734 80.7984 296.403 84.2543 297.835 85.6458C297.936 85.7392 298.051 85.8147 298.175 85.869C298.713 86.0984 299.305 86.1591 299.877 86.0434L299.816 86.1933C299.326 87.421 299.076 88.7347 299.077 90.0608C299.077 95.7905 303.688 100.436 309.38 100.436C310.45 100.437 311.514 100.268 312.534 99.9369C312.558 100.069 312.579 100.202 312.602 100.335C312.602 100.387 312.62 100.439 312.626 100.491L312.446 100.75C312.437 100.734 312.427 100.718 312.415 100.704L307.073 108.355C306.257 108.945 301.554 112.432 301.289 115.048C301.01 117.911 300.731 121.262 300.731 121.262L300.693 121.98C300.46 122.18 300.187 122.326 299.893 122.407C299.599 122.489 299.292 122.504 298.992 122.451C297.325 122.172 297.325 128.728 297.325 128.728C297.325 128.728 296.216 129.775 295.453 128.868C294.691 127.961 292.677 131.034 292.677 131.034L280.053 131.592L279.764 131.609L279.084 129.45C279.01 129.223 278.852 129.034 278.644 128.925C278.436 128.816 278.194 128.795 277.971 128.868C277.918 128.886 277.867 128.908 277.818 128.934L277.77 128.962L277.682 129.025L277.637 129.067C277.613 129.089 277.59 129.114 277.569 129.14L277.529 129.189L277.508 129.21C277.43 129.321 277.378 129.45 277.356 129.585C277.335 129.721 277.345 129.86 277.386 129.991L277.971 131.843C275.535 132.345 273.044 133.761 275.075 137.66L264.779 135.71L268.11 138.577L285.307 142.214C285.079 142.633 285.229 143.239 285.94 144.094C289.002 147.78 294.582 148.781 296.828 149.039C297.421 150.399 298.162 151.685 299.036 152.875L298.842 156.547C298.842 156.547 293.157 184.537 292.115 185.956C292.641 185.345 293.122 184.696 293.555 184.013C291.905 189.764 289.598 197.635 288.992 198.814C288.019 200.697 287.117 208.317 288.226 208.805C288.567 208.955 289.54 208.882 290.928 208.774V209.405L290.867 233.325C290.867 233.325 291.146 247.996 290.38 249.394C289.615 250.793 289.41 253.725 289.41 253.725C289.41 253.725 286.348 259.511 283.922 261.837C283.906 261.855 283.887 261.872 283.868 261.886L283.793 261.342C283.793 261.342 280.877 265.115 274.425 264.902C274.425 264.902 270.543 267.49 276.3 267.63C282.057 267.769 289.41 267.42 289.41 267.42C289.41 267.42 294.545 259.399 298.846 260.446V266.524H300.163V260.348C300.773 259.936 301.296 259.401 301.699 258.776C302.102 258.151 302.377 257.448 302.507 256.711C302.62 255.951 302.537 255.174 302.267 254.456C301.998 253.739 301.55 253.106 300.969 252.62C300.708 252.378 300.498 252.083 300.354 251.755C300.209 251.426 300.132 251.07 300.129 250.709L300.081 250.751C300.081 250.629 300.05 250.503 300.037 250.374C299.659 247.236 299.186 240.76 300.857 235.968C303.147 229.398 303.841 220.247 302.174 214.8C301.636 213.058 301.194 211.288 300.85 209.495C300.809 209.269 300.772 209.053 300.738 208.85C301.877 209.008 303.006 209.241 304.116 209.548C307.978 210.639 316.427 210.842 323.64 210.782C323.658 210.985 323.678 211.197 323.702 211.41C323.83 212.889 324.099 214.351 324.505 215.776C325.41 218.566 325.825 230.866 325.825 230.866C325.825 230.866 326.992 240.979 326.356 245.094C326.015 247.382 325.675 249.68 325.481 251.989V252.034C325.481 252.034 323.569 257.614 322.171 260.644C322.137 260.721 322.099 260.798 322.065 260.871C321.692 260.906 321.325 260.989 320.973 261.119C320.973 261.119 319.098 264.955 317.23 265.589C315.362 266.224 315.981 268.313 320.211 267.546C324.44 266.779 330.827 266.151 330.827 266.151L331.102 262.238L332.402 260.571L332.062 264.474L333.447 264.195L333.263 259.448L335.39 256.721C335.39 256.721 337.959 254.378 334.141 249.767V249.868C334.1 249.802 334.063 249.732 334.018 249.666V249.645C333.385 248.641 332.882 246.768 333.804 243.445C335.471 237.44 336.441 231.989 336.441 231.989C336.441 231.989 340.163 217.387 335.689 210.479H335.886C335.428 209.507 335.104 208.474 334.923 207.41C334.901 207.284 334.88 207.155 334.862 207.023C338.173 206.828 341.422 206.214 344.073 204.889C344.063 204.875 342.467 170.224 341.147 164.707ZM299.115 140.54V140.61L298.434 140.645L299.115 140.54ZM296.78 140.871C296.669 140.897 296.564 140.948 296.474 141.021C296.182 141.446 295.998 141.939 295.94 142.455L294.878 142.211C294.878 142.211 294.133 142.047 293.061 141.862L292.554 141.339C293.949 141.22 295.399 141.046 296.78 140.871Z" fill="url(#paint1_linear)"/>
<path d="M331.905 259.497L331.5 264.439L332.858 264.16L332.654 258.8L331.905 259.497Z" fill="#1D2366"/>
<path d="M300.932 236.034C299.295 240.812 299.758 247.26 300.125 250.392C300.261 251.549 300.387 252.254 300.387 252.254C300.387 252.254 297.941 257.966 297.737 258.182C297.532 258.399 290.537 262.775 290.537 262.775L285.647 265.701C285.647 265.701 280.686 263.473 283.065 262.706C283.551 262.506 283.988 262.2 284.347 261.809C286.729 259.49 289.72 253.726 289.72 253.726C289.72 253.726 289.924 250.8 290.673 249.408C291.421 248.017 291.149 233.394 291.149 233.394L291.207 209.558V206.451L300.513 206.521C300.572 207.576 300.706 208.625 300.915 209.659C301.249 211.445 301.682 213.211 302.211 214.946C303.851 220.383 303.171 229.489 300.932 236.034Z" fill="#FFB0B1"/>
<path opacity="0.1" d="M300.387 252.254C300.387 252.254 297.941 257.966 297.737 258.182C297.532 258.399 290.537 262.775 290.537 262.775L285.647 265.701C285.647 265.701 280.686 263.473 283.065 262.706C283.551 262.506 283.988 262.2 284.347 261.809L284.558 263.333L286.188 263.263L300.139 250.399C300.261 251.549 300.387 252.254 300.387 252.254Z" fill="black"/>
<path d="M300.217 250.723L286.188 263.675L284.558 263.745L284.218 261.304C284.218 261.304 281.367 265.063 275.031 264.854C275.031 264.854 271.227 267.431 276.865 267.57C282.503 267.71 289.703 267.361 289.703 267.361C289.703 267.361 294.732 259.34 298.941 260.386V266.444H300.234V260.331C300.835 259.916 301.348 259.381 301.742 258.757C302.137 258.134 302.404 257.436 302.527 256.704C302.639 255.95 302.56 255.179 302.297 254.466C302.035 253.752 301.597 253.12 301.027 252.63C300.772 252.386 300.569 252.09 300.43 251.762C300.291 251.434 300.218 251.081 300.217 250.723Z" fill="#1D2366"/>
<path d="M333.198 243.483C332.293 246.796 332.787 248.662 333.406 249.663V249.684C334.2 250.92 334.753 252.302 335.032 253.754L335.087 254.067L328.704 263.605L325.24 265C325.24 265 319.67 263.051 320.687 262.493C320.942 262.357 321.34 261.631 321.796 260.631C323.157 257.614 325.036 252.048 325.036 252.048V252.003C325.233 249.705 325.546 247.414 325.893 245.133C326.516 241.028 325.372 230.953 325.372 230.953C325.372 230.953 324.964 218.702 324.079 215.916C323.68 214.499 323.415 213.046 323.287 211.577C323.103 209.834 323.062 208.397 323.062 208.397C323.062 208.397 326.73 203.166 333.454 208.815C333.991 209.266 334.464 209.792 334.859 210.378C339.503 217.15 335.764 232.069 335.764 232.069C335.764 232.069 334.828 237.495 333.198 243.483Z" fill="#FFB0B1"/>
<path opacity="0.1" d="M335.097 254.067L328.714 263.605L325.25 265C325.25 265 319.68 263.051 320.697 262.493C320.953 262.357 321.351 261.631 321.807 260.63C324.165 260.609 325.386 262.911 325.386 262.911L328.374 262.423C328.374 262.423 332.314 254.486 333.199 254.001C334.083 253.516 333.335 250.377 333.335 250.377V249.579C333.358 249.607 333.379 249.638 333.406 249.666V249.687C334.2 250.923 334.753 252.305 335.032 253.757L335.097 254.067Z" fill="black"/>
<path d="M325.59 263.117C325.59 263.117 323.889 259.916 320.629 261.098C320.629 261.098 318.795 264.934 316.961 265.555C315.127 266.176 315.74 268.268 319.884 267.504C324.029 266.741 330.276 266.109 330.276 266.109L330.548 262.207L334.76 256.707C334.76 256.707 337.271 254.374 333.535 249.781V250.58C333.535 250.58 334.284 253.719 333.399 254.203C332.515 254.688 328.588 262.629 328.588 262.629L325.59 263.117Z" fill="#1D2366"/>
<path opacity="0.1" d="M300.523 206.514C300.582 207.569 300.716 208.618 300.925 209.652C297.093 209.077 293.538 209.363 291.207 209.551V206.444L300.523 206.514Z" fill="black"/>
<path opacity="0.1" d="M335.237 211.246C335.237 211.246 329.792 211.518 323.3 211.574C323.117 209.83 323.076 208.393 323.076 208.393C323.076 208.393 326.744 203.162 333.467 208.812C334.005 209.262 334.478 209.788 334.872 210.374C334.978 210.672 335.099 210.963 335.237 211.246Z" fill="black"/>
<path d="M335.237 210.618C335.237 210.618 311.391 211.8 304.123 209.712C296.855 207.623 289.652 209.433 288.567 208.948C287.481 208.463 288.362 200.871 289.315 198.991C290.268 197.112 295.494 178.102 295.494 178.102L300.523 151.229L305.821 149.733L306.195 149.625L315.427 147.016L322.191 145.102C322.191 145.102 335.641 198.922 334.488 202.89C334.069 204.41 334.002 206.009 334.291 207.56C334.467 208.619 334.785 209.648 335.237 210.618Z" fill="#1D2366"/>
<path d="M282.993 132.85C282.993 132.85 278.229 138.082 281.836 140.997C285.443 143.913 287.815 141.276 287.815 141.276L282.993 132.85Z" fill="#C7DAF5"/>
<path opacity="0.1" d="M282.993 132.85C282.993 132.85 278.229 138.082 281.836 140.997C285.443 143.913 287.815 141.276 287.815 141.276L282.993 132.85Z" fill="black"/>
<path d="M321.48 98.4583C321.48 98.4583 320.922 99.0023 320.081 99.8044C318.884 100.952 317.111 102.629 315.539 104.035C313.361 105.977 311.565 107.403 312.208 106.186C312.851 104.969 312.728 102.849 312.409 100.865C312.385 100.732 312.364 100.6 312.34 100.47C312.076 99.0132 311.724 97.5737 311.289 96.1601C311.289 96.1601 314.807 91.501 316.754 89.6632C317.478 88.9657 317.985 88.6798 318.016 89.1645C318.05 89.8166 318.526 91.2569 319.118 92.7844C319.135 92.8332 319.152 92.8785 319.173 92.9273C319.568 93.9735 320.013 95.0477 320.405 95.9753C321.004 97.3981 321.48 98.4583 321.48 98.4583Z" fill="#FFB0B1"/>
<path opacity="0.1" d="M319.173 92.9273C318.842 94.75 318.04 96.4482 316.85 97.8444C315.66 99.2407 314.126 100.284 312.409 100.865C312.138 99.2727 311.764 97.701 311.289 96.1601C311.289 96.1601 317.914 87.3893 318.016 89.1644C318.04 89.8375 318.557 91.3301 319.173 92.9273Z" fill="black"/>
<path opacity="0.1" d="M311.748 103.208L312.606 101.97C312.606 101.97 313.174 105.52 315.263 103.954C317.353 102.388 317.455 115.738 317.455 115.738L315.212 150.099L299.009 149.105L299.468 132.502L301.302 124.132L305.838 111.965L308.536 107.944L311.748 103.208Z" fill="black"/>
<path d="M317.455 115.951L315.413 147.02L315.199 150.312L306.165 149.757L305.824 149.736L299.019 149.318L299.479 132.711L301.313 124.341L305.848 112.174L308.547 108.153L311.759 103.4L312.616 102.165C312.616 102.165 313.184 105.716 315.274 104.15L315.318 104.118C317.359 102.793 317.455 115.951 317.455 115.951Z" fill="#1D2366"/>
<path d="M301.541 121.433C301.541 121.433 300.727 123.177 299.094 122.894C297.461 122.612 297.464 129.172 297.464 129.172C297.464 129.172 296.379 130.218 295.63 129.311C294.882 128.404 292.908 131.47 292.908 131.47L280.543 132.028C280.543 132.028 286.045 134.605 284.967 142.402C284.967 142.402 303.647 141.217 304.259 139.407C304.872 137.597 301.541 121.433 301.541 121.433Z" fill="white"/>
<path opacity="0.03" d="M301.541 121.433C301.541 121.433 300.727 123.177 299.094 122.894C297.461 122.612 297.464 129.172 297.464 129.172C297.464 129.172 296.379 130.218 295.63 129.311C294.882 128.404 292.908 131.47 292.908 131.47L280.543 132.028C280.543 132.028 286.045 134.605 284.967 142.402C284.967 142.402 303.647 141.217 304.259 139.407C304.872 137.597 301.541 121.433 301.541 121.433Z" fill="black"/>
<path d="M265.606 136.125L268.866 138.978L295.698 144.756L292.371 141.276L265.606 136.125Z" fill="white"/>
<path d="M311.8 104.307C311.354 105.004 310.078 108.575 309.013 111.693C308.125 114.291 307.383 116.575 307.383 116.575C307.383 116.575 305.651 128.132 304.766 130.221C303.882 132.31 304.362 140.457 304.362 140.457L301.064 160.575C301.064 160.575 299.571 170.95 297.264 177.147C294.987 183.246 292.452 186.106 292.374 186.197C293.395 184.781 298.958 156.903 298.958 156.903L300.796 121.744C300.796 121.744 301.064 118.403 301.337 115.547C301.609 112.69 307.121 108.792 307.121 108.792L312.436 101.046C312.97 101.778 312.613 103.055 311.8 104.307Z" fill="white"/>
<path d="M297.941 149.492C297.941 149.492 290.115 149.143 286.324 144.478C282.534 139.812 295.086 142.615 295.086 142.615L298.349 143.383L297.941 149.492Z" fill="#FFB0B1"/>
<path opacity="0.1" d="M334.488 202.894C334.069 204.414 334.002 206.013 334.291 207.564C325.754 208.184 316.621 205.82 316.621 205.82C314.92 207.424 310.438 209.789 310.438 209.789L307.995 178.751C306.434 174.566 305.821 152.641 305.821 152.641C305.821 152.641 305.961 151.494 306.161 149.775C306.161 149.733 306.161 149.688 306.178 149.646C306.787 144.844 307.995 135.829 308.587 134.612C309.404 132.938 306.076 128.484 306.076 128.484L307.59 115.25L307.774 113.653C310.966 112.192 313.412 107.525 313.412 107.525L315.291 104.153C317.332 102.811 317.438 115.968 317.438 115.968L315.396 147.037L322.16 145.123C322.16 145.123 335.641 198.925 334.488 202.894Z" fill="black"/>
<path d="M343.25 205.039C333.944 209.774 317.029 205.387 317.029 205.387C315.328 206.992 310.847 209.356 310.847 209.356L308.4 178.319C306.842 174.134 306.229 152.209 306.229 152.209C306.229 152.209 308.196 135.85 309.013 134.179C309.251 133.691 309.135 132.965 308.853 132.184C307.464 128.466 306.954 124.464 307.363 120.505L308.016 114.817L308.196 113.224C311.391 111.759 313.838 107.093 313.838 107.093L315.539 104.038L318.669 98.4093L320.153 95.745L320.405 95.9786L322.327 97.7642C322.327 97.7642 323.144 98.4616 324.369 99.5079C327.033 101.81 331.637 105.862 334.012 108.341C336.101 110.524 336.761 119.016 336.952 125.408C337.077 129.618 337.003 132.917 337.003 132.917C334.896 136.47 340.405 165 340.405 165C341.688 170.514 343.25 205.039 343.25 205.039Z" fill="white"/>
<path opacity="0.03" d="M325.386 107.023C325.386 107.023 318.999 119.483 319.741 124.219C320.483 128.955 322.592 134.315 321.575 135.567C321.226 136.041 320.774 136.426 320.255 136.692C319.736 136.958 319.164 137.097 318.584 137.098C317.563 137.168 314.841 139.117 314.841 139.327C314.841 139.536 312.327 139.536 310.078 140.512C307.829 141.489 304.508 142.043 304.508 142.043C304.508 142.043 298.043 141.834 297.441 142.462C296.838 143.089 296.219 146.845 297.509 149.841C298.798 152.837 300.231 155.072 301.313 155.48C302.395 155.888 309.261 153.531 314.831 152.973C320.401 152.415 326.448 147.892 326.448 147.892C326.448 147.892 333.106 145.45 334.274 141.346C335.441 137.241 332.848 114.681 332.848 114.681C332.848 114.681 330.888 104.167 325.386 107.023Z" fill="black"/>
<path opacity="0.03" d="M324.57 105.977C324.57 105.977 318.183 118.441 318.931 123.173C319.68 127.905 321.783 133.269 320.762 134.524C320.414 134.999 319.963 135.385 319.444 135.65C318.926 135.916 318.354 136.055 317.775 136.055C316.754 136.125 314.032 138.074 314.032 138.284C314.032 138.493 311.517 138.493 309.268 139.466C307.019 140.439 303.698 140.997 303.698 140.997C303.698 140.997 297.233 140.788 296.634 141.415C296.035 142.043 295.409 145.802 296.702 148.795C297.995 151.787 299.424 154.026 300.506 154.434C301.588 154.842 308.455 152.484 314.025 151.93C319.595 151.375 325.641 146.845 325.641 146.845C325.641 146.845 332.297 144.404 333.45 140.303C334.604 136.202 332.025 113.635 332.025 113.635C332.025 113.635 330.072 103.124 324.57 105.977Z" fill="black"/>
<path d="M325.185 106.395C325.185 106.395 318.799 118.859 319.547 123.592C320.296 128.324 322.399 133.688 321.381 134.939C321.033 135.415 320.581 135.802 320.062 136.068C319.543 136.334 318.971 136.473 318.39 136.474C317.37 136.544 314.648 138.493 314.648 138.699C314.648 138.905 312.136 138.908 309.884 139.885C307.631 140.861 304.314 141.415 304.314 141.415C304.314 141.415 297.849 141.206 297.247 141.834C296.644 142.462 296.025 146.221 297.315 149.213C298.604 152.205 300.037 154.444 301.119 154.852C302.201 155.26 309.067 152.903 314.637 152.345C320.207 151.787 326.254 147.264 326.254 147.264C326.254 147.264 332.913 144.823 334.08 140.718C335.247 136.613 332.671 114.054 332.671 114.054C332.671 114.054 330.684 103.557 325.185 106.395Z" fill="white"/>
<path opacity="0.1" d="M325.046 139.825C325.046 139.825 319.942 138.779 321.718 140.523C323.494 142.266 323.484 143.794 325.658 143.724C327.833 143.654 325.046 139.825 325.046 139.825Z" fill="black"/>
<path opacity="0.1" d="M333.671 177.342C333.671 177.342 331.364 178.943 335.778 182.633C340.191 186.322 333.671 177.342 333.671 177.342Z" fill="black"/>
<path opacity="0.1" d="M329.269 190.5C329.269 190.709 328.452 198.172 331.507 200.038C334.563 201.904 329.269 190.5 329.269 190.5Z" fill="black"/>
<path d="M280.754 132.01C278.291 132.097 272.969 132.868 275.729 138.145C278.168 142.814 282.268 139.693 284.575 137.325C284.013 135.117 282.645 133.215 280.754 132.01Z" fill="#FFB0B1"/>
<path d="M284.606 137.283L284.707 137.175L284.606 137.283Z" fill="#FFB0B1"/>
<path opacity="0.1" d="M324.369 99.7208C321.755 101.552 319.564 103.097 319.135 103.417C317.965 104.307 315.733 109.527 314.294 112.192C313.147 114.336 309.421 114.887 308.016 115.023L308.196 113.43C311.391 111.965 313.838 107.299 313.838 107.299L320.153 95.9509L322.327 97.9771C322.327 97.9771 323.144 98.6746 324.369 99.7208Z" fill="black"/>
<path d="M324.369 99.5113C321.755 101.342 319.564 102.887 319.135 103.211C317.965 104.097 315.733 109.318 314.294 111.982C313.147 114.127 309.421 114.678 308.016 114.814L308.196 113.22C311.391 111.755 313.838 107.089 313.838 107.089L320.153 95.7415L322.327 97.7606C322.327 97.7606 323.144 98.4511 324.369 99.5113Z" fill="#DCE7FF"/>
<path d="M319.34 90.6256C319.341 92.7191 318.722 94.7635 317.564 96.4879C316.196 98.5267 314.16 99.9955 311.826 100.628C309.492 101.26 307.014 101.014 304.842 99.9335C302.67 98.8534 300.948 97.0111 299.988 94.7409C299.028 92.4707 298.894 89.923 299.61 87.56C300.325 85.197 301.844 83.1753 303.89 81.8618C305.936 80.5483 308.373 80.0299 310.76 80.4008C313.147 80.7717 315.325 82.0072 316.899 83.8832C318.473 85.7592 319.339 88.1514 319.34 90.6256Z" fill="#FFB0B1"/>
<path opacity="0.1" d="M336.952 125.412C335.57 124.54 334.444 123.301 333.695 121.827C333.127 120.676 332.749 119.347 331.78 118.531C330.905 117.799 329.738 117.621 328.649 117.293C325.07 116.209 322.069 112.861 321.956 109.039C321.902 107.239 322.45 105.443 322.201 103.661C322.06 102.653 321.669 101.698 321.065 100.889C320.765 100.502 320.436 100.139 320.081 99.8042C319.605 99.3439 319.105 98.8975 318.669 98.4093C318.395 98.107 318.155 97.7735 317.955 97.4154C317.793 97.1223 317.662 96.8126 317.564 96.4913C316.883 94.357 317.502 91.8252 316.754 89.6666L316.713 89.548C316.43 88.7808 315.855 88.0136 315.056 87.9543C314.256 87.895 313.572 88.575 312.81 88.8784C311.214 89.5131 309.493 88.4321 308.162 87.3301C306.832 86.2281 305.331 84.9692 303.64 85.2133C302.521 85.3772 301.636 86.1583 300.605 86.5629C300.372 86.6552 300.132 86.7264 299.887 86.7756C300.76 84.5455 302.363 82.6964 304.421 81.5461C306.479 80.3957 308.864 80.0159 311.166 80.4718C313.467 80.9278 315.542 82.1911 317.034 84.0447C318.526 85.8982 319.341 88.2264 319.34 90.6291C319.341 91.3546 319.267 92.0782 319.119 92.7877C319.136 92.8365 319.153 92.8819 319.173 92.9307C319.568 93.9769 320.013 95.051 320.405 95.9786L322.327 97.7641C322.327 97.7641 323.144 98.4616 324.369 99.5078C327.033 101.809 331.637 105.862 334.012 108.341C336.101 110.531 336.754 119.019 336.952 125.412Z" fill="black"/>
<path d="M300.486 80.1916C300.972 79.1768 301.214 78.0399 301.796 77.0774C302.65 75.6825 304.14 74.7897 305.671 74.2491C309.669 72.8368 318.118 70.7862 320.643 74.2491C321.14 74.9466 321.551 75.7208 322.239 76.2021C322.763 76.5682 323.395 76.7252 323.971 77.0007C325.58 77.7749 326.608 79.4627 327.155 81.1855C327.703 82.9082 327.866 84.7565 328.268 86.5316C328.782 88.8088 329.683 90.9675 330.582 93.1122C331.64 95.644 332.763 98.27 334.804 100.059C337.591 102.5 338.207 105.956 340.793 108.634C343.855 111.815 343.757 117.063 342.178 121.231C341.97 121.778 341.735 122.35 341.817 122.933C341.899 123.515 342.321 124.045 342.719 124.509L344.393 126.444C340.432 127.424 335.951 125.304 334.107 121.583C333.539 120.432 333.161 119.107 332.188 118.287C331.317 117.555 330.146 117.381 329.061 117.053C325.481 115.965 322.48 112.613 322.368 108.791C322.313 106.995 322.861 105.199 322.613 103.421C322.475 102.405 322.082 101.444 321.473 100.631C320.537 99.379 319.125 98.5385 318.363 97.1436C317.073 94.8105 318.053 91.78 317.125 89.2761C316.839 88.5089 316.267 87.7417 315.467 87.6824C314.668 87.6231 313.984 88.3032 313.218 88.6066C311.626 89.2413 309.904 88.1637 308.574 87.0582C307.243 85.9527 305.743 84.6972 304.048 84.9448C302.929 85.1053 302.048 85.8864 301.017 86.2944C300.254 86.5944 298.71 86.8629 298.043 86.2038C296.634 84.8751 299.897 81.4331 300.486 80.1916Z" fill="#591D4B"/>
<path opacity="0.1" d="M335.053 120.432C334.481 119.281 334.107 117.956 333.134 117.14C332.263 116.407 331.092 116.23 330.003 115.902C326.427 114.817 323.426 111.466 323.311 107.644C323.256 105.848 323.804 104.048 323.559 102.27C323.416 101.261 323.024 100.306 322.419 99.4972C321.48 98.2453 320.068 97.4048 319.309 96.0099C318.02 93.6803 318.999 90.6498 318.067 88.1424C317.785 87.3787 317.21 86.6115 316.413 86.5487C315.617 86.4859 314.927 87.173 314.164 87.4764C312.572 88.111 310.847 87.03 309.52 85.928C308.193 84.826 306.686 83.567 304.994 83.8111C303.875 83.975 302.99 84.7562 301.963 85.1607C301.201 85.4607 299.652 85.7327 298.985 85.0736C297.584 83.6786 300.847 80.2436 301.432 79.009C301.918 77.9907 302.16 76.8573 302.745 75.8948C302.776 75.8425 302.81 75.7902 302.844 75.7379C302.406 76.1096 302.028 76.5498 301.725 77.0422C301.143 78.0047 300.901 79.1346 300.415 80.1564C299.826 81.3909 296.563 84.8364 297.968 86.2209C298.649 86.8835 300.18 86.6115 300.942 86.3116C301.963 85.9035 302.854 85.1224 303.974 84.962C305.675 84.7144 307.172 85.9733 308.499 87.0753C309.826 88.1773 311.561 89.2584 313.147 88.6237C313.909 88.3203 314.576 87.6368 315.393 87.6995C316.209 87.7623 316.754 88.526 317.05 89.2933C317.979 91.7972 316.999 94.8277 318.288 97.1607C319.051 98.5313 320.463 99.3891 321.398 100.648C322.007 101.461 322.4 102.423 322.538 103.438C322.787 105.217 322.239 107.013 322.293 108.808C322.405 112.645 325.407 115.982 328.986 117.07C330.065 117.398 331.242 117.572 332.113 118.305C333.09 119.124 333.474 120.449 334.032 121.6C335.876 125.321 340.358 127.441 344.318 126.461L343.529 125.548C340.096 125.6 336.621 123.598 335.053 120.432Z" fill="black"/>
<path opacity="0.1" d="M311.595 104.516C311.15 105.213 309.874 108.784 308.809 111.902C307.812 111.504 306.907 108.969 306.907 108.969L312.221 101.22C312.766 101.987 312.409 103.26 311.595 104.516Z" fill="black"/>
<path d="M311.799 104.307C311.354 105.004 310.078 108.575 309.013 111.693C308.016 111.299 307.111 108.76 307.111 108.76L312.426 101.015C312.97 101.778 312.613 103.055 311.799 104.307Z" fill="#DCE7FF"/>
<path d="M280.897 139.933L277.951 130.409C277.916 130.298 277.903 130.18 277.912 130.064C277.922 129.947 277.954 129.833 278.006 129.729C278.059 129.625 278.131 129.533 278.218 129.458C278.305 129.382 278.407 129.325 278.515 129.29C278.735 129.22 278.972 129.241 279.176 129.35C279.38 129.458 279.534 129.645 279.604 129.869L282.551 139.382L282.258 141.374L280.897 139.933Z" fill="#BE8B87"/>
<path opacity="0.1" d="M278.23 129.572C278.449 129.501 278.688 129.522 278.892 129.63C279.097 129.739 279.251 129.926 279.322 130.151L282.268 139.665L282.047 141.157L282.262 141.387L282.554 139.396L279.591 129.883C279.52 129.658 279.366 129.472 279.162 129.363C278.958 129.255 278.721 129.234 278.502 129.304C278.317 129.365 278.158 129.488 278.049 129.652C278.107 129.621 278.167 129.594 278.23 129.572Z" fill="white"/>
<path d="M280.897 139.933L282.551 139.396L282.309 141.028L282.258 141.387L281.775 140.871L280.897 139.933Z" fill="#EFC8C4"/>
<path d="M281.775 140.871C281.804 140.834 281.84 140.803 281.88 140.781C281.904 140.765 281.932 140.757 281.96 140.757C281.989 140.757 282.016 140.765 282.04 140.781C282.064 140.809 282.083 140.841 282.098 140.875C282.121 140.913 282.151 140.946 282.188 140.971C282.224 140.996 282.266 141.012 282.309 141.018L282.258 141.367L281.775 140.871Z" fill="#727A9C"/>
<path d="M277.934 133.792C277.934 133.792 283.844 133.757 282.452 136.334C281.061 138.911 278.886 139.222 278.886 139.222L277.934 133.792Z" fill="#FFB0B1"/>
<path d="M241.175 18.134H240.92C230.767 18.134 221.787 23.6406 216.622 31.7661C211.457 23.6406 202.478 18.134 192.324 18.134H192.069C184.449 18.2085 177.166 21.3619 171.802 26.9092C166.438 32.4564 163.427 39.9492 163.423 47.7591C163.423 57.4575 167.567 71.2186 175.648 82.542C191.045 104.118 216.622 122.995 216.622 122.995C216.622 122.995 242.2 104.122 257.593 82.542C265.677 71.2186 269.818 57.4575 269.818 47.7591C269.814 39.9498 266.803 32.4575 261.44 26.9104C256.077 21.3633 248.795 18.2094 241.175 18.134ZM237.524 84.202C236.368 84.1975 235.24 83.8347 234.288 83.1613C233.337 82.4879 232.606 81.5354 232.192 80.4287H226.122C225.723 80.4261 225.334 80.2957 225.01 80.0556C224.686 79.8156 224.443 79.4778 224.315 79.0895L222.451 73.3319L216.551 94.4618C216.436 94.8686 216.195 95.2261 215.865 95.4808C215.535 95.7355 215.133 95.8735 214.72 95.8742H214.601C214.17 95.8528 213.759 95.6805 213.437 95.386C213.115 95.0915 212.901 94.6926 212.832 94.2561L206.751 56.7739L202.308 78.9535C202.206 79.3749 201.969 79.7491 201.635 80.0165C201.302 80.2838 200.89 80.429 200.467 80.4287H191.916C191.66 80.4398 191.404 80.3977 191.164 80.3048C190.924 80.2119 190.705 80.0702 190.519 79.8883C190.334 79.7063 190.187 79.4879 190.086 79.246C189.985 79.0042 189.934 78.7439 189.934 78.481C189.934 78.2181 189.985 77.9578 190.086 77.716C190.187 77.4741 190.334 77.2557 190.519 77.0737C190.705 76.8917 190.924 76.7501 191.164 76.6572C191.404 76.5643 191.66 76.5222 191.916 76.5333H198.97L205.264 46.7129C205.368 46.272 205.617 45.8816 205.97 45.6084C206.323 45.3352 206.758 45.1962 207.2 45.2152C207.642 45.2341 208.064 45.4099 208.394 45.7123C208.723 46.0147 208.94 46.4252 209.007 46.8733L215.217 85.1087L220.505 66.2038C220.615 65.8056 220.847 65.4546 221.168 65.2032C221.489 64.9518 221.88 64.8134 222.284 64.8088H222.322C222.721 64.8089 223.111 64.9385 223.435 65.1789C223.759 65.4194 224 65.7585 224.125 66.148L227.497 76.5438H232.118C232.446 75.5208 233.044 74.6107 233.845 73.9141C234.647 73.2174 235.62 72.7611 236.659 72.5957C237.697 72.4303 238.76 72.5621 239.729 72.9766C240.699 73.3911 241.538 74.0722 242.154 74.9447C242.771 75.8171 243.139 76.8471 243.22 77.9209C243.301 78.9946 243.091 80.0704 242.613 81.0296C242.135 81.9887 241.408 82.7938 240.512 83.3561C239.616 83.9184 238.585 84.2159 237.535 84.216L237.524 84.202Z" fill="#FFB4B4"/>
<defs>
<linearGradient id="paint0_linear" x1="122.245" y1="270.426" x2="122.245" y2="55.8358" gradientUnits="userSpaceOnUse">
<stop stop-color="#808080" stop-opacity="0.25"/>
<stop offset="0.54" stop-color="#808080" stop-opacity="0.12"/>
<stop offset="1" stop-color="#808080" stop-opacity="0.1"/>
</linearGradient>
<linearGradient id="paint1_linear" x1="75952.1" y1="161912" x2="75952.1" y2="51760.4" gradientUnits="userSpaceOnUse">
<stop stop-color="#808080" stop-opacity="0.25"/>
<stop offset="0.54" stop-color="#808080" stop-opacity="0.12"/>
<stop offset="1" stop-color="#808080" stop-opacity="0.1"/>
</linearGradient>
</defs>
</svg>
