<svg id="bc77e115-7117-4bed-98bf-a47b9af09f3f" data-name="Layer 1" xmlns="http://www.w3.org/2000/svg" xmlns:xlink="http://www.w3.org/1999/xlink" width="626.12" height="698.31" viewBox="0 0 626.12 698.31"><defs><linearGradient id="beca6d11-2f4f-45ad-9761-8d9626b3dfe8" x1="445.06" y1="472.29" x2="445.06" y2="295.16" gradientUnits="userSpaceOnUse"><stop offset="0" stop-color="gray" stop-opacity="0.25"/><stop offset="0.54" stop-color="gray" stop-opacity="0.12"/><stop offset="1" stop-color="gray" stop-opacity="0.1"/></linearGradient><linearGradient id="abf2ce7a-3a8e-4e71-af9a-7167f778c8de" x1="139.14" y1="646.22" x2="166.86" y2="646.22" xlink:href="#beca6d11-2f4f-45ad-9761-8d9626b3dfe8"/><linearGradient id="e793dc18-03c6-4270-9f95-3ece0dc1f9d4" x1="207.95" y1="646.22" x2="235.66" y2="646.22" xlink:href="#beca6d11-2f4f-45ad-9761-8d9626b3dfe8"/><linearGradient id="a662d8a7-500e-4cdb-b63c-023f30f9864f" x1="413.73" y1="586.32" x2="538.68" y2="586.32" xlink:href="#beca6d11-2f4f-45ad-9761-8d9626b3dfe8"/><linearGradient id="ee67e446-4a27-4e27-8ef6-3f3f8b2a8e7b" x1="410.06" y1="781.74" x2="453.79" y2="781.74" xlink:href="#beca6d11-2f4f-45ad-9761-8d9626b3dfe8"/><linearGradient id="e1a476c7-9793-4904-ae4a-9b4aa50cf60d" x1="495.33" y1="781.74" x2="539.06" y2="781.74" xlink:href="#beca6d11-2f4f-45ad-9761-8d9626b3dfe8"/><linearGradient id="af1e1d5f-433d-40a4-b4c3-067781993a8b" x1="188.06" y1="206.65" x2="188.06" y2="0" xlink:href="#beca6d11-2f4f-45ad-9761-8d9626b3dfe8"/></defs><title>woman</title><path d="M591.52,412q.18-.64.3-1.29c0-.16,0-.32.07-.47s.09-.6.11-.9,0-.42,0-.63,0-.52,0-.78,0-.42,0-.62,0-.56-.06-.84-.05-.35-.07-.52c0-.32-.1-.64-.16-1l0-.15L569.41,304.28c-14.46,2-6.77.24-14.46,2s0,0-13.48,4.38l5.61,25.28L527,305.79a14.2,14.2,0,0,0-10.2-6.35,93.35,93.35,0,0,1-14.75-2.79,37.77,37.77,0,0,0-10.52-1.49h-34A37.72,37.72,0,0,0,447,296.65a93.35,93.35,0,0,1-14.75,2.79,14.2,14.2,0,0,0-10.2,6.35l-51.57,77.5-49.8-65.8c-11.91,7.81-5.69,2.88-11.91,7.81s0,0-10.72,10.09L359.84,417a14.18,14.18,0,0,0,10,5.56l.34,0,.88,0,.76,0,.47,0c.38,0,.77-.08,1.16-.14h.05a14.22,14.22,0,0,0,9.7-6.28l34.86-51,5.25,84.1c0,12.67,11.16,23,23.57,23h55.31c12.41,0,22.57-10.36,22.57-23l4.3-84.1,36.81,51c0,.06.09.12.13.19s.23.31.35.47.37.5.58.74c0,.06.1.11.14.17a14.31,14.31,0,0,0,5.46,3.88,1,1,0,0,1,.16.06c.36.13.72.26,1.09.37a5.73,5.73,0,0,0,.56.14l.75.18c.24.05.49.08.74.12l.62.08.71,0,.71,0,.55,0c.31,0,.61,0,.92-.06l.34-.05c.38,0,.77-.12,1.15-.2h0l.11,0a11.66,11.66,0,0,0,1.28-.37h.05a14.26,14.26,0,0,0,3.41-1.69,14.5,14.5,0,0,0,5.79-8.18Z" transform="translate(-286.94 -100.84)" fill="url(#beca6d11-2f4f-45ad-9761-8d9626b3dfe8)"/><rect x="139.14" y="628.95" width="27.71" height="34.53" fill="url(#abf2ce7a-3a8e-4e71-af9a-7167f778c8de)"/><rect x="207.95" y="628.95" width="27.71" height="34.53" fill="url(#e793dc18-03c6-4270-9f95-3ece0dc1f9d4)"/><path d="M498.11,431.17H452.74c-29.16,0-39,23.61-39,51.49l8.8,258.8h39.83V538a12.91,12.91,0,0,1,11.47-12.74c7.89-.9,14.66,5,14.66,12.4V741.46h39.82l10.37-258.8C538.68,454.78,527.26,431.17,498.11,431.17Z" transform="translate(-286.94 -100.84)" fill="url(#a662d8a7-500e-4cdb-b63c-023f30f9864f)"/><path d="M453.79,764.33v34.83H414.4a4.12,4.12,0,0,1-3-7.13c7.91-7.28,18-18.75,14.68-27.7" transform="translate(-286.94 -100.84)" fill="url(#ee67e446-4a27-4e27-8ef6-3f3f8b2a8e7b)"/><path d="M495.33,764.33v34.83h39.4a4.12,4.12,0,0,0,3-7.13c-7.9-7.28-18-18.75-14.68-27.7" transform="translate(-286.94 -100.84)" fill="url(#e1a476c7-9793-4904-ae4a-9b4aa50cf60d)"/><rect x="141.08" y="625.82" width="26.22" height="34.17" fill="#ffd9cb"/><rect x="206.19" y="625.82" width="26.22" height="34.17" fill="#ffd9cb"/><path d="M496.17,431.17H453.24c-27.59,0-36.91,23.36-36.91,50.95l8.33,256.09h37.69V536.91a12.58,12.58,0,0,1,10.85-12.59,12.39,12.39,0,0,1,13.87,12.27V738.21h37.69l9.8-256.09C534.56,454.53,523.76,431.17,496.17,431.17Z" transform="translate(-286.94 -100.84)" fill="#212121"/><path d="M454.24,760.83V795.3H417a4.1,4.1,0,0,1-2.83-7.06c7.48-7.2,17-18.55,13.89-27.41" transform="translate(-286.94 -100.84)" fill="#212121"/><path d="M493.55,760.83V795.3h37.28a4.1,4.1,0,0,0,2.83-7.06c-7.48-7.2-17-18.55-13.89-27.41" transform="translate(-286.94 -100.84)" fill="#212121"/><ellipse cx="188.06" cy="103.32" rx="98.06" ry="103.32" fill="url(#af1e1d5f-433d-40a4-b4c3-067781993a8b)"/><ellipse cx="188.06" cy="103.32" rx="93.17" ry="98.17" fill="#f6b1c3"/><ellipse cx="186.69" cy="110.54" rx="76.85" ry="78.64" fill="#f6b1c3"/><ellipse cx="187.69" cy="107.54" rx="76.85" ry="78.64" opacity="0.3"/><rect x="522.41" y="265.86" width="55.2" height="27.31" rx="4.47" transform="translate(-156.48 631.02) rotate(-74.09)" fill="#bdbdbd"/><rect x="305.17" y="288.14" width="5.69" height="24.46" rx="1.99" transform="translate(-389.67 71.55) rotate(-26.97)" fill="#ffcfbe"/><rect x="295.21" y="292.8" width="5.69" height="24.08" rx="1.99" transform="translate(-401.91 309.71) rotate(-60)" fill="#ffcfbe"/><path d="M299.73,310.82c-2.24,1.27-13.93,8.9,1.1,22.86a5.39,5.39,0,0,0,6.86.37l10.6-7.85a5.39,5.39,0,0,0,1.89-6.08l-3-8.84a8.42,8.42,0,0,0-13.36-3.74l-3.29,2.75A4.57,4.57,0,0,1,299.73,310.82Z" transform="translate(-286.94 -100.84)" fill="#ffcfbe"/><rect x="274.41" y="176.06" width="5.69" height="15.73" rx="1.99" fill="#ffcfbe"/><path d="M551.45,289.15s-19.78.34-7.19,25.29l21-4.28,2.23-21a3,3,0,0,0-3.8-3.26Z" transform="translate(-286.94 -100.84)" fill="#ffcfbe"/><rect x="551.66" y="267.37" width="5.69" height="25.22" rx="1.99" transform="translate(-353.37 161.78) rotate(-25.19)" fill="#ffcfbe"/><rect x="547.24" y="270.63" width="5.69" height="21.81" rx="1.99" transform="translate(-354.45 160.04) rotate(-25.19)" fill="#ffcfbe"/><rect x="543.13" y="275.79" width="5.69" height="20.68" rx="1.99" transform="translate(-356.8 158.73) rotate(-25.19)" fill="#ffcfbe"/><rect x="539.43" y="282.44" width="5.69" height="18.18" rx="1.99" transform="translate(-359.45 157.67) rotate(-25.19)" fill="#ffcfbe"/><path d="M589.58,409.75c.11-.41.21-.83.29-1.25,0-.15,0-.3.07-.45s.09-.58.11-.87,0-.41,0-.62,0-.5,0-.75,0-.4,0-.6,0-.55-.05-.82,0-.33-.07-.5-.1-.62-.16-.93c0,0,0-.1,0-.14L567.71,305.3c-14.3,1.94-6.7.24-14.3,1.94s0,0-13.34,4.25L545.62,336l-19.85-29.23a14.09,14.09,0,0,0-10.09-6.16,93.7,93.7,0,0,1-14.59-2.7,37.92,37.92,0,0,0-10.4-1.45H457.05a38,38,0,0,0-10.4,1.45,93.7,93.7,0,0,1-14.59,2.7A14.09,14.09,0,0,0,422,306.77L371,381.9l-49.25-63.79c-11.78,7.57-5.63,2.8-11.78,7.57s0,0-10.6,9.79l61.1,79.13a14,14,0,0,0,9.89,5.39c.11,0,.23,0,.34,0l.87,0,.74,0,.47,0c.38,0,.76-.07,1.15-.13H374a14.13,14.13,0,0,0,9.6-6.08L420,360.05l4.17,85.81a22.39,22.39,0,0,0,22.33,22.32h54.69a22.39,22.39,0,0,0,22.33-22.32l4.16-85.81L564.2,413.8l.14.18.34.45c.18.25.37.5.57.73l.15.16a14.2,14.2,0,0,0,5.39,3.76,1,1,0,0,1,.16.06c.36.13.72.26,1.08.36l.55.14.74.17c.24.05.49.08.73.11l.62.08.71,0,.69,0,.55,0c.3,0,.61,0,.91-.06l.33-.05c.38-.05.76-.11,1.14-.19h0l.11,0c.42-.1.85-.22,1.27-.35l0,0a13.81,13.81,0,0,0,3.37-1.64,14,14,0,0,0,5.73-7.92Z" transform="translate(-286.94 -100.84)" fill="#f6b1c3"/><circle cx="186.94" cy="109.75" r="67.43" fill="#e53935"/><rect x="174.3" y="160.81" width="27.51" height="50.99" rx="13.76" fill="#ffe0b2"/><circle cx="186.94" cy="121.44" r="52.15" fill="#ffe0b2"/><circle cx="169.55" cy="107.05" r="3.15" fill="#db7657"/><circle cx="204.32" cy="107.05" r="3.15" fill="#db7657"/><path d="M486.76,239.83c0,4.21-5.77,7.63-12.89,7.63S461,244,461,239.83,486.76,235.62,486.76,239.83Z" transform="translate(-286.94 -100.84)" fill="#fff"/><path d="M448.1,165.64s-8.39,42,81.52,33.57l-22.18-36.56Z" transform="translate(-286.94 -100.84)" fill="#e53935"/><ellipse cx="421.73" cy="219.14" rx="5.39" ry="9.29" transform="translate(-336.04 53.5) rotate(-19.62)" fill="#ffcfbe"/><rect x="181.54" y="103.91" width="13.04" height="6.29" fill="#f6b1c3"/><circle cx="267.29" cy="163.25" r="2.81" fill="#fff"/><path d="M471.68,366.68a20.23,20.23,0,0,0-28.54,28.68l28.68,28.53,28.53-28.67a20.23,20.23,0,1,0-28.67-28.54Z" transform="translate(-286.94 -100.84)" fill="#fff"/><ellipse cx="526.02" cy="219.14" rx="9.29" ry="5.39" transform="matrix(0.34, -0.94, 0.94, 0.34, -143.98, 540.18)" fill="#ffcfbe"/><circle cx="167.46" cy="191.79" r="3.82" fill="#fff"/><rect x="165.66" y="191.79" width="3.3" height="39.11" rx="1.15" fill="#fff"/><circle cx="210.56" cy="191.79" r="3.82" fill="#fff"/><rect x="208.91" y="191.79" width="3.3" height="32.59" rx="1.15" fill="#fff"/><circle cx="158.53" cy="107.05" r="25.39" fill="#f6b1c3"/><circle cx="158.53" cy="107.05" r="17.79" opacity="0.3"/><circle cx="217.29" cy="107.05" r="25.39" fill="#f6b1c3"/><circle cx="217.29" cy="107.05" r="17.79" opacity="0.3"/><path d="M909.43,608.78c-.33,23.45-20.12,42-43.58,42h-3.26a11,11,0,0,0-7.73,3.12,10.78,10.78,0,0,0-3.14,5.48,10.1,10.1,0,0,0-.33,2.59v41.41a41.52,41.52,0,0,1-6.56,22.46,59.35,59.35,0,0,0-9.76,31.95h0a20,20,0,0,1-20.33,20c-11-.2-19.57-9.63-19.57-20.6V746.78l-5.44.64v10.37a20,20,0,0,1-20.34,20c-11-.2-19.57-9.63-19.57-20.6V751.9c-5.44,2.26-36.27,2.26-44.83.07l-2.32-.18v6a20,20,0,0,1-20.34,20c-11-.2-19.57-9.63-19.57-20.6v-8.62l-1.81-.16v9.43a19.94,19.94,0,0,1-20.33,20c-10-.18-18.07-8.07-19.39-17.81a23.35,23.35,0,0,1-.18-2.79V713.81a66.36,66.36,0,0,1,14.15-41,12.3,12.3,0,0,0,.34-14.53c-10.16-14.87-25.17-40-24.69-57.76.13-5.15,1.55-9.67,4.76-13.17.2-.22.4-.44.6-.64,14.61-15.3,40.35-3.26,38.12,17.78a59,59,0,0,0,1.54,21A64.68,64.68,0,0,0,660,636.76a19.11,19.11,0,0,0,19.57,10.88,69.1,69.1,0,0,1,8.18-.49h83.89a23.56,23.56,0,0,0,22.31-16,23,23,0,0,0,1.27-7.6V558.28a12.7,12.7,0,0,1,13.09-12.7,12.35,12.35,0,0,1,8.76,4.08,13.65,13.65,0,0,1,3.54,9.15,6.72,6.72,0,0,0,6.73,6.72h39.52a42.6,42.6,0,0,1,42.62,43.25Z" transform="translate(-286.94 -100.84)" fill="#f3ad55"/><path d="M660.33,762.74a20,20,0,0,1-19.71,15c-10-.18-18.07-8.07-19.39-17.81C633.31,756.67,650.05,754.42,660.33,762.74Z" transform="translate(-286.94 -100.84)" fill="#fbdca3"/><path d="M702.05,762.74a20,20,0,0,1-19.72,15c-10-.18-18.06-8.07-19.38-17.81C675,756.67,691.77,754.42,702.05,762.74Z" transform="translate(-286.94 -100.84)" fill="#fbdca3"/><path d="M789.11,762.74a20,20,0,0,1-19.72,15c-10-.18-18.06-8.07-19.38-17.81C762.09,756.67,778.83,754.42,789.11,762.74Z" transform="translate(-286.94 -100.84)" fill="#fbdca3"/><path d="M834.45,762.74a20,20,0,0,1-19.71,15c-10-.18-18.07-8.07-19.39-17.81C807.43,756.67,824.17,754.42,834.45,762.74Z" transform="translate(-286.94 -100.84)" fill="#fbdca3"/><path d="M655.87,625.48c-14.09-5.66-31.29-16-45-25,.13-5.15,1.55-9.67,4.76-13.17.2-.22.4-.44.6-.64,14.61-15.3,40.35-3.26,38.12,17.78A59,59,0,0,0,655.87,625.48Z" transform="translate(-286.94 -100.84)" fill="#fbdca3"/><path d="M672.93,647.27s38.81,48.85,102.29-.12" transform="translate(-286.94 -100.84)" fill="#fbdca3"/><path d="M795.17,556.47s23.58,30.83,0,68.92" transform="translate(-286.94 -100.84)" fill="#fbdca3"/><path d="M851.39,661.66s-20.76,25.81-.26,46.31" transform="translate(-286.94 -100.84)" fill="#fbdca3"/><path d="M853.21,656.22c-1.54,1.45-1,2.85-1.49,5l-67.43-17.66c3.62-2.8,8.12-6.12,9.61-10.54C802,639.26,818,649.78,853.21,656.22Z" transform="translate(-286.94 -100.84)" opacity="0.1"/><path d="M854.86,653.9a10.78,10.78,0,0,0-3.14,5.48L786,642.24a23.45,23.45,0,0,0,7.91-11.07C802,637.45,819.62,647.46,854.86,653.9Z" transform="translate(-286.94 -100.84)" fill="#383f4d"/><path d="M796.37,634.8s20.56,15.47,55,20.26" transform="translate(-286.94 -100.84)" opacity="0.1"/><path d="M796.37,633s20.56,15.46,55,20.25" transform="translate(-286.94 -100.84)" fill="#f3ad55"/><path d="M847.77,634.46s34.46,10.88,43.53-23.58Z" transform="translate(-286.94 -100.84)" opacity="0.1"/><path d="M847.77,632.64s34.46,10.89,43.53-23.58Z" transform="translate(-286.94 -100.84)" fill="#fbdca3"/><ellipse cx="622.5" cy="503.69" rx="3.63" ry="6.35" fill="#383f4d"/><path d="M634.65,735.12l7.26-58s-21.77,34.46-7.26,58" transform="translate(-286.94 -100.84)" opacity="0.1"/><path d="M643.72,677.08s-21.76,34.46-7.25,58Z" transform="translate(-286.94 -100.84)" fill="#fbdca3"/></svg>